<svg width="252" height="253" viewBox="0 0 252 253" fill="none" xmlns="http://www.w3.org/2000/svg">
<path fill-rule="evenodd" clip-rule="evenodd" d="M78.7016 129.605C79.1023 128.986 78.8809 130.215 79.2757 129.487C78.9773 128.808 79.2374 127.528 78.664 127.146C78.7531 127.831 78.4849 127.865 78.287 128.552C78.6922 127.609 79.1611 128.955 78.7016 129.605ZM93.4182 130.409C93.6648 130.416 93.5148 129.936 93.7361 129.9C95.4875 130.423 97.1827 132.022 99.4195 131.439C100.57 132.864 102.397 132.745 103.835 133.179C104.876 133.494 105.822 134.672 107.223 133.362C105.251 132.497 102.986 132.253 101.5 131.197C99.2817 131.172 96.8295 129.907 93.9152 129.04C93.8117 128.818 94.2794 127.981 94.0741 127.868C93.7979 128.414 93.5079 128.727 93.2027 128.808C89.3014 127.155 85.9531 126.08 83.4206 125.019C83.3183 124.78 83.6606 123.226 83.1245 124.005C83.2007 124.119 83.3757 124.915 83.0637 124.903C81.7182 123.821 76.8839 123.372 75.5001 121.223C75.6129 121.324 75.5751 121.587 75.5395 121.848C73.5613 120.977 71.3797 121.338 70.1731 119.8C71.6647 121.541 73.2868 123.694 75.5976 122.785C75.4987 123.059 75.3993 123.333 75.3 123.605C76.3286 122.479 76.723 124.94 77.2397 124.849C79.3691 122.782 79.3937 125.859 81.1611 126.121C81.9997 124.702 83.1788 125.942 83.5176 126.581C86.4882 127.379 90.203 128.459 93.4182 130.409ZM69.1019 121.288C68.7562 120.817 69.3292 120.561 69.6176 120.232C69.56 119.526 68.8946 119.503 68.3106 119.807C69.1345 119.537 68.2977 121.415 68.6071 120.82C68.805 120.88 68.9496 120.083 69.1427 120.076C68.9791 120.556 68.8074 120.918 68.6262 121.133C69.0338 120.844 68.8173 121.983 69.1019 121.288ZM67.8339 121.487C68.1515 118.773 65.7118 119.808 64.9451 118.101C64.667 118.615 64.3634 118.728 64.0538 118.728C63.5762 118.411 62.5399 117.293 61.8153 118.308C62.2452 118.401 62.0781 119.136 62.3491 119.398C62.7717 118.639 63.8584 118.816 63.9727 119.316C63.5433 120.384 63.6794 118.993 63.2996 119.707C64.1966 119.873 66.6049 119.478 67.8339 121.487ZM61.6766 117.956C60.9761 118.016 60.583 116.45 59.7954 117.652C60.4303 117.406 61.1705 118.756 61.6766 117.956ZM72.4307 120.533C72.7575 120.617 73.2292 120.092 73.1845 119.553C72.9011 119.369 72.6568 119.805 72.4307 120.533ZM69.3029 118.903C69.4709 118.502 69.627 117.88 69.819 117.847C70.2382 118.228 71.3352 118.716 71.8186 118.193C68.1068 116.089 63.8946 114.815 61.6219 113.35C61.7359 113.32 61.8591 113.419 61.9589 113.153C61.6215 112.721 61.366 113.606 61.0668 113.782C60.0257 112.483 58.0253 112.506 57.0987 111.523C57.1364 111.272 56.9644 111.248 56.8306 111.183C56.9017 111.314 57.0002 111.418 57.0987 111.523C57.0863 111.603 57.0533 111.707 56.9875 111.846C55.843 111.156 55.3116 112.025 55.0474 110.603C54.6859 111.631 54.1815 110.401 53.8196 111.427C57.8035 113.718 64.3924 115.268 68.5115 117.424C68.4565 118.229 67.7958 117.783 68.0947 118.207C68.4796 117.579 68.3408 118.912 68.7882 118.126C68.5233 116.659 69.2305 117.997 69.3029 118.903ZM39.6193 107.735C39.3599 108.675 39.9829 108.358 40.3327 107.966C39.9703 107.745 40.0934 107.002 39.462 107.07C39.2444 107.527 39.3841 107.83 39.1644 107.892C38.6833 107.965 39.4166 106.731 38.8679 106.878C38.705 107.374 38.5174 107.48 38.3123 107.311C37.8298 108.847 38.9811 109.003 39.6193 107.735ZM35.5794 106.422C35.7976 107.214 36.9156 107.694 37.6384 107.703C37.5337 105.149 35.4704 107.239 35.2643 105.096C35.0907 105.424 34.9078 105.606 34.7091 105.527C34.17 107.076 35.0539 106.811 35.5794 106.422ZM40.6715 105.933C40.183 106.127 40.5384 105.41 40.3941 105.233C40.1954 105.776 39.9443 105.475 39.76 106.251C40.1552 106.537 40.1754 106.771 40.6715 105.933ZM51.2842 109.993C48.5753 109.064 46.4433 107.216 43.5618 107.486C45.864 108.401 48.1104 109.7 51.2842 109.993ZM54.3924 113.144C54.3255 113.105 54.2662 113.057 54.3725 112.831C54.5711 112.914 54.7531 112.72 54.9276 112.4C54.5544 112.013 54.2473 112.691 53.9171 112.989C54.2331 112.8 54.0166 113.937 54.3924 113.144ZM52.4338 109.755C52.0949 110.542 51.6578 109.746 51.3045 110.306C51.5172 110.465 51.4217 110.957 51.4814 111.282C52.6873 110.234 52.5266 112.1 53.7993 111.117C53.626 110.067 51.6368 111.033 52.4338 109.755ZM66.7135 112.864C66.5512 112.685 66.8658 112.519 67.0111 112.042C66.3001 112.608 67.063 111.044 66.3975 111.537C66.5894 111.77 66.4942 112.046 66.2179 112.397C66.3491 112.502 66.512 113.38 66.7135 112.864ZM44.3991 102.25C44.6502 101.925 44.8807 101.269 45.152 101.272C44.707 102.63 46.0568 102.387 46.084 101.267C45.5749 102.08 44.5491 99.95 42.9947 100.264C42.901 102.124 43.7549 101.621 44.3991 102.25ZM38.0042 98.6428C37.5865 98.6648 37.17 97.2313 36.8164 98.257C36.8988 98.5969 37.5062 99.8244 38.0042 98.6428ZM35.1326 97.4048C35.1105 96.875 34.611 96.956 34.3208 97.4461C34.5474 97.7348 34.7115 97.8747 35.1326 97.4048ZM34.3009 97.1359C34.2508 96.4624 33.3415 95.8436 32.7371 96.3205C33.3499 96.7178 33.6402 97.5983 34.3009 97.1359ZM104.405 118.068C103.761 117.368 103.195 116.932 102.503 117.451C102.7 118.022 103.879 118.406 104.405 118.068ZM102.147 117.335C101.946 117.203 101.616 116.373 101.197 117.026C101.215 117.354 101.84 117.868 102.147 117.335ZM112.346 120.341C112.936 120.964 113.977 120.753 114.703 120.801C114.088 120.399 113.51 120.003 112.346 120.341ZM108.069 118.952C106.934 118.656 105.678 117.802 104.543 118.419C106.171 118.614 106.723 119.605 108.069 118.952ZM55.2326 104.238C55.4286 104.376 55.9841 105.475 56.4009 104.314C55.7603 104.384 55.7766 103.392 55.2326 104.238ZM46.4205 101.071C46.0668 101.904 46.5888 102.371 46.9153 101.537C46.8861 100.857 46.4441 101.653 46.4205 101.071ZM37.9244 99.2304C39.3651 98.843 40.1668 100.886 41.806 99.8781C40.4058 99.6568 39.6867 97.9866 37.9244 99.2304ZM50.0046 102.542C48.8669 102.46 48.0335 100.666 46.835 102.125C48.0107 101.99 48.8106 104.28 50.0046 102.542ZM78.4053 108.094C78.1172 107.46 77.2847 107.412 77.258 106.498C78.0627 107.093 79.8147 108.106 80.565 107.266C78.4918 106.141 76.3327 106.14 74.566 104.4C74.6162 104.179 74.7584 103.859 74.645 103.814C74.5131 104.178 74.3804 104.544 74.2481 104.909C74.0392 104.377 72.985 103.872 72.4862 104.642C73.166 106.144 74.7799 106.711 75.8907 106.972C75.8962 106.815 75.4599 106.38 75.8512 106.346C76.4452 107.098 77.5443 108.186 78.4053 108.094ZM70.0291 104.456C70.5168 104.028 70.366 105.033 70.8418 104.415C70.691 104.28 70.7687 103.075 70.4459 103.675C70.5176 103.764 70.5015 103.948 70.3669 104.259C70.2071 104.184 69.8901 104.173 70.0291 104.456ZM69.7919 104.379C69.9242 104.014 70.0565 103.649 70.1892 103.285C68.164 101.801 66.6689 101.89 64.3289 100.768C65.6118 103.805 68.1384 101.965 69.7919 104.379ZM63.8532 100.614C63.5219 99.9801 61.2962 100.495 62.0315 99.412C62.0468 99.076 60.7288 99.9517 60.7825 99.9238C61.6024 100.368 63.1422 101.563 63.8532 100.614ZM60.07 99.6914C60.202 99.3146 60.3442 99.1099 60.4869 98.9092C60.3164 98.6504 60.3213 97.8006 59.8927 98.7169C60.1054 98.8762 60.0104 99.3676 60.07 99.6914ZM81.0231 105.273C80.5259 104.531 79.2809 104.595 79.3802 103.211C79.5797 103.292 79.7617 103.097 79.9349 102.78C79.1306 103.577 80.0768 101.528 79.4409 102.313C79.1032 103.124 77.5387 101.774 77.1235 102.477C77.7936 104.239 79.3136 105.75 81.0231 105.273ZM85.4408 105.178C84.8246 103.051 84.4496 105.525 82.9257 104.056C82.955 105.314 84.913 105.08 83.6749 106.748C84.7787 105.412 86.1548 108.494 87.3388 107.632C87.2893 107.019 86.6938 106.995 87.0045 105.993C87.0155 106.351 87.5158 106.27 87.8168 105.949C86.9073 105.876 86.3158 104.398 85.4408 105.178ZM87.8363 106.262C88.1414 106.18 88.4936 106.854 88.7673 106.259C88.3913 105.987 88.3074 105.516 87.8363 106.262ZM135.626 116.582C137.382 116.729 137.347 117.548 138.913 117.039C138.307 116.42 136.671 115.122 135.626 116.582ZM144.815 118.344C144.439 118.138 143.775 118.244 143.726 117.684C143.65 118.767 144.241 119.052 144.815 118.344ZM90.3572 100.045C89.1398 99.8778 88.8283 98.319 88.0007 99.5853C88.5731 99.1198 89.6708 101.178 90.3572 100.045ZM79.3292 94.9342C79.4285 94.6604 79.5283 94.3856 79.6272 94.113C79.5129 93.7289 78.6377 93.9214 78.7374 92.9049C78.001 94.5739 77.2934 92.3683 76.2808 92.7207C76.5537 94.5512 78.3741 93.8364 79.3292 94.9342ZM75.6073 93.1123C75.3269 90.9943 73.2767 92.4211 73.0944 90.1544C75.1213 90.6073 76.5706 92.3327 79.1733 92.4353C79.0558 92.1172 78.6143 92.1486 78.659 91.6566C79.8474 91.341 80.0142 92.3336 80.2816 93.4075C80.4672 92.6443 80.7191 92.9579 80.9357 92.7019C81.0413 93.44 81.2843 94.558 82.0444 93.6743C78.724 89.4831 70.7513 87.0369 67.0166 86.0399C69.2003 87.703 71.177 87.2494 72.6791 89.1031C71.459 90.1149 71.1204 87.1443 69.5103 88.6854C70.2825 88.6125 71.0106 89.8162 71.6872 90.0055C71.8926 89.194 72.8652 90.5637 71.9035 91.6041C73.0423 91.9794 74.7328 92.447 75.6073 93.1123ZM68.4211 88.0256C67.3132 86.9112 66.4703 87.1066 65.3322 87.0215C66.4949 87.9027 67.2928 89.0184 68.4211 88.0256ZM58.0448 84.0431C57.7344 84.0455 57.4313 84.1581 57.1531 84.6708C57.5115 84.8493 58.0027 85.7449 58.579 85.1346C58.4829 84.5385 57.7358 84.644 57.8271 84.2793C57.9041 84.2872 57.982 84.2838 58.0448 84.0431ZM56.3405 84.7144C56.9076 83.306 56.8929 84.7152 57.1336 84.3594C56.9741 84.2276 57.2689 83.7328 57.4316 83.5383C56.3217 83.927 56.4131 82.6434 55.1332 84.016C54.9409 83.3893 53.9627 83.6108 54.2231 82.4961C53.8278 82.977 54.108 82.8482 53.8266 83.5901C54.5348 83.6047 54.6865 84.2202 55.0529 84.6023C55.5474 83.1371 56.0317 84.4987 56.3405 84.7144ZM52.9754 83.0084C52.0886 83.0464 52.2657 81.8115 51.6281 81.9603C51.9181 82.4265 51.5402 83.6102 51.9831 83.9119C52.175 82.3641 52.3432 83.9551 52.9754 83.0084ZM83.5111 92.9263C84.3113 95.2815 86.6161 95.1543 88.1229 95.955C87.8755 95.7893 88.1151 95.1354 88.4014 94.8199C86.742 93.9263 85.1599 92.844 83.5111 92.9263ZM61.3114 86.0219C61.5438 86.028 61.6474 87.261 61.6873 86.4514C61.6205 86.4111 61.562 86.3635 61.6678 86.1375C62.1197 86.1514 62.295 86.4624 62.5191 86.7204C62.9081 85.7377 61.5926 85.7303 61.3114 86.0219ZM62.9415 80.4333C62.8943 79.6469 62.3609 80.5967 62.01 80.4365C62.0654 80.285 62.0262 80.0957 61.8916 80.3977C61.9859 81.2624 62.3927 80.8596 62.9415 80.4333ZM88.5219 134.019C87.9232 134.695 88.2696 134.318 87.7685 134.998C84.8212 133.232 83.0195 132.7 80.2049 131.318C80.3083 131.103 80.4231 131.084 80.5224 130.809C80.1428 130.862 79.1144 131.658 79.1963 130.071C79.0128 130.235 78.8355 130.511 78.6603 130.816C78.537 130.726 78.7416 130.283 78.8395 129.956C78.7246 129.977 78.6217 130.192 78.5033 130.152C78.0668 130.319 78.786 130.533 78.2049 130.973C77.4501 130.479 78.005 129.381 76.8975 130.55C76.3852 130.192 76.3067 129.093 75.5714 129.813C75.3799 129.579 75.4747 129.304 75.7506 128.952C74.8533 129.743 74.5834 128.79 73.7501 128.609C73.9611 128.268 74.1892 128.182 74.4241 128.216C74.6698 127.243 73.7515 128.186 73.8903 127.124C74.3532 126.97 74.7025 126.336 74.9203 126.848C74.7735 125.118 72.4756 124.933 71.6541 124.869C72.0586 124.649 71.9818 123.419 71.6342 124.557C71.515 124.241 71.8032 123.486 71.5567 123.308C71.8207 122.607 72.2518 123.096 72.1912 122.291C71.8166 122.085 71.7815 123.465 71.1998 123.193C71.2275 123.662 71.5811 123.781 71.1792 124.714C71.0131 124.547 70.8768 124.855 70.7417 125.186C70.4852 124.467 71.6282 124.226 71.1208 123.777C70.6174 124.519 69.55 124.477 69.0596 124.333C69.9365 125.62 71.2853 124.822 72.0881 126.233C71.4006 127.816 70.959 126.733 70.801 126.121C70.4711 126.088 70.793 126.645 70.4037 127.216C70.3328 127.001 69.5614 126.858 69.4536 126.907C69.2639 126.127 70.1082 126.396 70.3261 125.967C70.0971 125.821 69.3325 124.627 68.5026 126.598C68.5385 126.004 68.7252 125.248 68.4055 125.037C68.3695 125.298 68.3314 125.561 68.4441 125.662C67.8753 126.042 68.5089 124.298 69.0401 124.02C67.9164 122.744 65.0068 122.111 62.6846 121.037C61.5534 120.516 60.1599 120.162 59.3183 119.333C58.7931 118.815 56.5683 118.293 55.2784 118.021C55.1482 117.885 55.429 117.303 55.5565 116.888C54.2157 118.193 53.6033 116.194 51.7932 116.277C51.6712 116.188 51.8746 115.745 51.9728 115.418C51.7917 115.216 51.156 116.094 51.5969 114.99C49.8411 116.285 48.6517 114.477 47.4772 114.264C47.3122 114.233 47.0108 114.719 47.0413 114.734C46.7992 114.614 46.8095 113.658 46.3883 113.605C45.8939 113.541 45.7483 113.372 45.2994 112.944C44.8944 112.559 44.0322 111.88 43.8346 111.857C43.6793 111.838 43.5034 112.469 43.2795 112.289C43.0999 112.142 43.3202 111.626 43.2318 111.404C43.1664 111.521 42.1888 111.283 41.7158 111.474C42.2281 110.425 39.8654 110.857 39.0628 110.001C39.3313 109.465 39.6141 109.581 39.5781 108.945C38.7599 109.13 38.2489 110.526 38.0538 108.755C37.0994 109.709 37.0009 108.973 36.0733 108.723C36.2715 108.181 36.523 108.481 36.7073 107.706C36.1713 108.682 36.1633 107.29 35.5789 108.256C35.4886 108.172 35.5696 107.912 35.6659 107.784C34.6245 108.582 33.5038 107.526 32.8256 107.057C33.2326 106.357 33.1089 106.053 33.4606 106.039C33.2557 105.572 32.5379 105.031 33.2245 104.129C32.9333 104.388 32.8099 104.349 32.7496 103.973C32.5936 104.303 32.6166 104.443 32.6924 104.524C31.4948 103.58 29.6949 102.508 28.9878 101.528C28.6824 102.212 28.8174 101.65 28.1955 101.882C28.3755 101.669 28.5471 101.306 28.7117 100.826C28.4005 100.822 28.1709 102.099 27.8391 101.765C28.4327 99.8269 26.5492 101.599 26.8304 100.521C26.6745 100.52 26.5487 100.988 26.4137 101.303C26.081 100.683 25.836 100.816 24.9874 100.84C26.3706 99.9809 25.023 100.182 24.4922 100.374C24.6467 99.7467 24.8609 100.058 25.0282 99.6296C25.0196 99.0673 24.6127 98.6146 24.2155 99.6719C24.1389 98.1615 23.4501 97.9638 22.8719 96.7873C23.8163 95.866 24.8479 96.0112 26.2202 96.3464C26.4403 96.2832 26.2997 95.9812 26.5177 95.525C28.4429 95.4483 29.8343 96.8403 31.7867 96.0127C29.5907 93.3821 25.9295 93.5618 23.4911 91.7872C24.5461 91.3044 24.9608 91.2501 26.1454 91.4263C26.3271 90.6202 25.5329 90.8647 25.4929 90.2972C25.814 89.8445 26.1904 90.2833 26.523 90.0199C25.2214 88.5681 23.4323 88.5543 21.3552 87.424C21.6012 86.3907 21.9803 87.4854 22.2088 86.1712C25.8198 87.8069 29.734 85.9739 31.1991 88.4805C30.8869 89.0685 30.4943 88.37 30.1501 88.444C30.7097 89.9643 32.2192 90.0968 33.4163 90.4239C36.7635 91.3363 40.126 92.1755 43.3582 93.0401C43.4508 92.7729 43.29 92.7791 43.2191 92.6894C47.0009 92.6218 52.2521 94.2844 55.2202 96.5859C55.4372 96.33 55.6895 96.6438 55.8738 95.8814C56.3621 97.5654 57.7637 96.9732 58.9826 97.1983C62.1014 97.7697 64.8855 100.506 67.8151 100.677C66.9897 101.905 68.1377 100.894 68.6464 100.947C70.6808 101.163 73.3053 103.15 75.5769 103.81C75.3558 101.894 72.6586 102.773 71.895 100.779C72.0793 100.008 72.3837 101.157 72.5685 100.386C71.4426 97.7527 68.7089 99.5415 67.5812 96.93C67.3175 97.1504 67.4678 97.3965 67.0447 97.6742C63.7177 97.2507 59.3458 94.7694 55.6993 93.0714C55.2673 92.8694 54.6334 93.5515 54.093 93.4685C49.5506 92.7668 46.8245 88.7032 42.5893 88.2024C44.957 88.0649 46.2815 89.4035 49.2046 89.7391C49.3604 89.74 49.486 89.2716 49.621 88.9555C51.1359 89.4718 51.3512 90.4824 52.5316 90.8187C58.2323 92.4504 64.5726 95.3203 71.3455 95.7066C71.8697 95.6335 71.6996 94.7524 72.0798 94.4147C72.8417 96.0452 74.7227 94.8688 75.0484 97.2146C75.4585 97.0732 75.037 96.4727 74.9899 96.2779C76.4252 95.7887 76.762 99.1754 78.6324 98.6836C78.8143 97.7663 78.1627 97.7467 78.1781 97.007C78.2116 96.7709 78.955 97.1545 78.9105 97.5509C79.7152 96.2644 81.4546 97.7599 82.3368 98.3582C83.0048 97.0934 84.4582 99.369 85.4665 98.1505C82.4892 96.4617 78.103 96.1663 75.2898 93.6208C75.0763 94.0735 75.1946 94.1691 75.3279 94.2459C74.8499 94.5432 74.4956 94.2886 74.6957 93.4285C74.2423 93.229 74.5807 93.8608 74.1605 94.1719C73.9054 93.8001 73.8666 93.6213 73.7642 93.4319C72.4183 93.8649 71.6033 92.4813 70.7547 91.8424C68.7748 90.7456 71.3388 92.4038 71.9842 91.018C69.8613 89.4474 66.374 89.354 64.5585 87.6892C64.9983 86.2788 64.9811 87.8203 65.3114 86.7109C64.5912 85.9152 63.5878 86.1313 62.9164 85.6256C62.7516 86.5816 63.738 86.2971 63.271 87.5783C62.2842 87.4446 61.347 86.6563 60.6578 86.7277C61.3985 84.7535 59.6667 84.8723 59.1123 86.2271C58.5201 86.4756 59.1569 85.3999 58.7173 85.4863C58.5434 85.5045 58.3994 85.9907 58.5182 86.0336C56.813 85.8283 52.8613 84.8323 51.2706 83.6795C51.1763 83.4478 51.2619 83.0214 51.4303 82.5067C50.9977 82.6268 51.181 83.412 50.9332 83.8752C50.1083 82.9564 48.9945 83.6362 48.7555 82.5573C49.0388 81.4848 49.4438 82.3911 49.7863 82.2789C49.7763 81.6514 49.3758 82.0591 49.946 81.1075C47.0532 80.4609 46.35 80.2048 43.8862 79.1391C46.0796 77.8782 47.4434 80.3496 49.3729 79.3918C50.1545 80.4912 51.2619 79.8608 52.1256 80.5908C52.4555 80.6254 52.1336 80.067 52.5229 79.4959C53.0077 79.3123 52.8008 79.559 53.2358 79.7285C53.5846 79.0193 53.1817 79.1194 53.177 78.7915C53.5348 78.1142 53.5076 79.4878 53.9892 78.7491C53.7812 77.4215 52.3082 79.5766 51.6327 78.2902C51.7313 77.7444 51.3468 77.9846 51.8115 77.4312C51.2058 77.3058 51.087 76.6546 50.3661 76.6547C49.8452 76.4922 50.5172 76.1763 50.7039 76.4579C51.8752 76.6318 53.5971 76.0977 53.9108 77.5008C54.7261 76.7825 54.4851 77.9679 55.0799 77.5741C55.0499 78.0444 54.782 78.7486 54.3452 78.8658C55.9647 80.6803 58.551 80.5387 60.6626 81.2223C60.5481 79.2462 58.3736 80.7303 57.9511 78.8118C59.0239 78.5167 59.7774 79.1242 60.6644 79.3878C60.1226 80.2284 61.1983 80.4456 61.654 80.3211C61.8732 80.2602 61.7343 79.9549 61.9516 79.4998C62.5628 80.211 63.3245 79.7317 64.3279 80.2715C64.3153 80.6745 64.0715 81.3268 64.2871 81.4833C64.7 79.5802 64.5749 82.2206 65.337 81.5175C63.8519 83.3769 64.1596 80.1352 62.9805 81.0573C63.9207 82.5935 64.8441 83.9086 66.5034 83.4264C66.7499 82.7169 66.0999 82.9723 66.6448 81.9414C67.533 82.2326 67.8328 82.7595 68.7831 82.6363C68.6115 82.9957 68.4028 82.7668 68.2077 82.7564C68.6939 84.6714 70.4864 85.2028 72.0085 85.8254C72.4035 85.4156 72.2856 84.968 72.1677 84.6537C72.4733 83.9428 72.8636 84.6029 73.1786 84.0638C74.4302 87.573 78.7166 85.6299 79.791 89.27C79.9427 88.7413 80.3434 88.9225 80.7621 88.057C81.7046 88.2803 82.2292 89.3308 83.456 88.3203C83.8688 89.8818 86.4335 88.4236 86.1071 91.6286C87.9714 89.8467 88.9304 90.4943 90.6436 91.571C90.4736 91.9569 90.2533 91.5528 90.0881 92.0039C90.4793 92.6372 91.3227 92.7836 91.9094 93.2074C92.0433 92.3408 91.2627 92.4597 90.801 92.2351C91.3932 90.8464 91.475 92.1944 92.1879 92.0723C91.9862 94.9121 94.3702 94.272 95.7116 94.4417C95.7519 93.8988 95.1698 94.0255 95.0781 93.6251C96.5469 92.8805 97.1784 94.8029 98.3864 94.3924C98.2532 94.7584 98.1214 95.1223 97.9891 95.4873C100.061 96.8783 101.909 96.8599 104.366 96.9468C104.69 96.8798 104.377 96.4734 104.783 96.1637C107.497 96.9068 110.286 98.4879 113.279 98.0056C113.252 97.7149 112.053 97.9554 112.607 96.5639C112.922 97.1366 114.1 97.4139 114.248 98.6274C117.174 99.2057 120.676 99.3965 123.776 100.193C126.34 100.849 129.119 100.849 131.658 101.528C136.667 102.868 140.498 105.049 144.786 106.71C146.035 107.193 147.088 107.907 147.656 109.783C146.45 112.176 145.6 111.273 144.167 111.71C144.301 112.288 144.151 113.172 144.622 113.388C144.526 113.544 143.944 114.343 144.224 114.482C142.898 116.921 141.706 115.523 140.538 116.954C140.802 118.41 142.285 117.29 143.409 118.193C143.501 117.261 143.043 116.921 142.498 116.674C143.871 115.981 145.413 117.241 146.241 118.807C145.336 119.877 145.3 118.44 144.161 119.048C143.966 120.414 143.181 120.56 142.93 121.709C143.067 122.228 143.555 122.369 143.919 122.642C143.511 122.929 143.156 124.076 142.73 124.091C142.358 125.046 142.583 125.36 142.609 125.888C142.794 126.095 143.447 124.757 143.224 124.558C143.88 123.514 144.101 125.805 144.611 124.395C144.427 125.642 143.61 125.371 143.183 125.769C143.146 126.587 143.594 126.88 143.756 127.484C143.2 128.126 142.804 127.187 142.449 127.059C142.23 127.121 142.368 127.425 142.152 127.88C142.735 128.633 144.015 129.449 144.586 129.589C144.165 130.806 144.297 129.35 143.912 129.983C144.211 131.245 143.446 133.445 142.658 136C141.814 136.28 141.539 136.606 140.797 136.006C140.574 136.209 140.581 136.621 140.161 137.024C139.964 138.287 141.024 138.723 141.547 138.697C140.803 139.798 141.217 140.886 141.484 141.431C141.192 142.333 140.828 142.101 140.513 142.645C139.811 145.919 137.937 145.963 136.744 147.538C134.246 147.392 132.317 145.11 129.833 144.989C129.049 144.949 128.064 145.47 127.297 145.388C125.551 145.205 123.95 144.437 122.208 144.042C116.926 142.842 112.214 140.73 106.582 139.885C104.8 139.617 102.546 139.491 100.581 138.853C97.3023 137.789 93.6479 137.434 91.3935 135.257C91.1704 135.46 91.1818 135.927 90.7386 135.963C90.449 134.504 88.2353 136.719 88.5219 134.019Z" fill="#FF7B29" fill-opacity="0.3"/>
<path fill-rule="evenodd" clip-rule="evenodd" d="M173.309 122.392C172.901 123.006 173.136 121.779 172.733 122.503C173.024 123.185 172.749 124.462 173.318 124.851C173.237 124.164 173.506 124.134 173.711 123.448C173.295 124.387 172.842 123.036 173.309 122.392ZM158.602 121.42C158.356 121.41 158.5 121.892 158.279 121.925C156.533 121.382 154.856 119.764 152.613 120.322C151.479 118.883 149.65 118.982 148.217 118.531C147.18 118.205 146.248 117.016 144.832 118.31C146.794 119.198 149.056 119.467 150.53 120.54C152.748 120.59 155.185 121.883 158.09 122.783C158.191 123.006 157.713 123.838 157.917 123.953C158.2 123.41 158.493 123.1 158.799 123.023C162.682 124.72 166.018 125.833 168.538 126.923C168.637 127.163 168.277 128.713 168.822 127.94C168.747 127.825 168.582 127.027 168.893 127.043C170.226 128.141 175.055 128.645 176.415 130.809C176.303 130.707 176.344 130.444 176.382 130.183C178.35 131.077 180.536 130.741 181.725 132.293C180.253 130.535 178.656 128.363 176.335 129.246C176.437 128.973 176.539 128.701 176.642 128.43C175.6 129.543 175.234 127.078 174.716 127.164C172.564 129.206 172.574 126.129 170.81 125.847C169.955 127.256 168.79 126.003 168.459 125.36C165.497 124.528 161.795 123.406 158.602 121.42ZM182.813 130.817C183.153 131.291 182.578 131.542 182.285 131.867C182.335 132.574 183 132.604 183.587 132.307C182.761 132.568 183.619 130.7 183.303 131.29C183.105 131.229 182.952 132.024 182.758 132.029C182.928 131.55 183.103 131.19 183.287 130.978C182.876 131.261 183.106 130.125 182.813 130.817ZM184.083 130.633C183.735 133.343 186.186 132.336 186.933 134.052C187.217 133.541 187.522 133.43 187.832 133.434C188.306 133.757 189.329 134.886 190.065 133.88C189.637 133.782 189.812 133.049 189.544 132.783C189.113 133.538 188.028 133.348 187.919 132.848C188.361 131.784 188.209 133.173 188.597 132.463C187.702 132.288 185.289 132.655 184.083 130.633ZM190.2 134.233C190.901 134.181 191.276 135.752 192.078 134.559C191.44 134.797 190.715 133.439 190.2 134.233ZM179.476 131.534C179.15 131.447 178.672 131.966 178.711 132.505C178.992 132.692 179.242 132.259 179.476 131.534ZM182.585 133.199C182.412 133.598 182.249 134.219 182.057 134.249C181.642 133.864 180.551 133.363 180.061 133.881C183.749 136.027 187.946 137.349 190.202 138.839C190.088 138.868 189.966 138.768 189.863 139.032C190.196 139.468 190.461 138.586 190.762 138.414C191.789 139.725 193.789 139.725 194.704 140.718C194.664 140.968 194.836 140.994 194.969 141.061C194.899 140.929 194.802 140.824 194.704 140.718C194.718 140.638 194.752 140.534 194.819 140.396C195.956 141.099 196.497 140.236 196.745 141.661C197.118 140.637 197.609 141.873 197.982 140.851C194.025 138.515 187.454 136.89 183.359 134.688C183.424 133.883 184.079 134.337 183.785 133.909C183.393 134.533 183.547 133.202 183.091 133.983C183.339 135.452 182.647 134.106 182.585 133.199ZM212.139 144.705C212.41 143.768 211.783 144.078 211.429 144.466C211.789 144.691 211.657 145.432 212.289 145.371C212.512 144.917 212.376 144.613 212.596 144.553C213.078 144.485 212.331 145.711 212.881 145.57C213.05 145.076 213.238 144.972 213.442 145.143C213.942 143.613 212.792 143.444 212.139 144.705ZM216.164 146.063C215.955 145.269 214.843 144.776 214.12 144.76C214.196 147.314 216.282 145.248 216.464 147.393C216.642 147.067 216.826 146.887 217.024 146.969C217.581 145.425 216.694 145.681 216.164 146.063ZM211.067 146.494C211.558 146.306 211.194 147.019 211.336 147.197C211.541 146.657 211.789 146.961 211.982 146.187C211.59 145.896 211.572 145.662 211.067 146.494ZM200.501 142.314C203.199 143.274 205.31 145.146 208.194 144.909C205.903 143.968 203.671 142.643 200.501 142.314ZM197.429 139.128C197.495 139.168 197.554 139.216 197.445 139.441C197.248 139.356 197.063 139.548 196.885 139.865C197.254 140.257 197.569 139.582 197.902 139.288C197.584 139.474 197.814 138.339 197.429 139.128ZM199.349 142.539C199.697 141.756 200.125 142.557 200.484 142.001C200.273 141.839 200.375 141.349 200.319 141.023C199.101 142.057 199.283 140.193 197.999 141.162C198.16 142.213 200.16 141.27 199.349 142.539ZM185.105 139.268C185.266 139.448 184.949 139.611 184.799 140.086C185.516 139.529 184.735 141.083 185.406 140.598C185.217 140.363 185.315 140.088 185.596 139.74C185.466 139.634 185.313 138.754 185.105 139.268ZM207.298 150.135C207.043 150.457 206.805 151.11 206.534 151.105C206.994 149.752 205.642 149.979 205.602 151.099C206.12 150.292 207.121 152.433 208.679 152.137C208.794 150.278 207.935 150.771 207.298 150.135ZM213.651 153.815C214.069 153.797 214.469 155.236 214.834 154.214C214.756 153.873 214.162 152.639 213.651 153.815ZM216.508 155.085C216.524 155.615 217.025 155.54 217.321 155.053C217.097 154.762 216.935 154.62 216.508 155.085ZM217.337 155.364C217.379 156.038 218.282 156.667 218.891 156.197C218.283 155.793 218.003 154.909 217.337 155.364ZM147.476 133.635C148.112 134.342 148.672 134.785 149.37 134.273C149.18 133.7 148.006 133.303 147.476 133.635ZM149.725 134.393C149.924 134.528 150.245 135.361 150.672 134.713C150.657 134.385 150.038 133.864 149.725 134.393ZM139.561 131.272C138.978 130.642 137.935 130.841 137.209 130.784C137.82 131.193 138.393 131.596 139.561 131.272ZM143.822 132.709C144.953 133.018 146.199 133.886 147.341 133.283C145.716 133.068 145.176 132.071 143.822 132.709ZM196.487 148.023C196.293 147.884 195.75 146.778 195.32 147.934C195.961 147.872 195.934 148.863 196.487 148.023ZM205.263 151.291C205.626 150.462 205.109 149.989 204.773 150.819C204.795 151.499 205.246 150.708 205.263 151.291ZM213.738 153.228C212.292 153.599 211.514 151.547 209.863 152.536C211.261 152.773 211.961 154.452 213.738 153.228ZM201.696 149.78C202.832 149.874 203.645 151.677 204.86 150.232C203.683 150.354 202.909 148.055 201.696 149.78ZM173.36 143.904C173.641 144.541 174.473 144.599 174.489 145.514C173.691 144.909 171.951 143.876 171.191 144.708C173.251 145.856 175.41 145.882 177.157 147.642C177.104 147.862 176.959 148.18 177.071 148.226C177.207 147.864 177.344 147.499 177.481 147.136C177.684 147.67 178.732 148.188 179.24 147.424C178.577 145.913 176.969 145.329 175.862 145.055C175.854 145.212 176.286 145.652 175.894 145.681C175.309 144.923 174.222 143.822 173.36 143.904ZM181.694 147.637C181.202 148.06 181.364 147.057 180.881 147.669C181.031 147.806 180.939 149.009 181.269 148.413C181.198 148.324 181.216 148.14 181.354 147.83C181.513 147.907 181.83 147.922 181.694 147.637ZM181.931 147.717C181.794 148.08 181.658 148.444 181.521 148.807C183.529 150.314 185.025 150.242 187.352 151.39C186.104 148.339 183.557 150.15 181.931 147.717ZM187.826 151.549C188.15 152.187 190.382 151.697 189.634 152.772C189.615 153.108 190.943 152.247 190.889 152.274C190.074 151.821 188.548 150.609 187.826 151.549ZM191.599 152.515C191.462 152.89 191.318 153.093 191.173 153.292C191.34 153.553 191.326 154.403 191.765 153.491C191.554 153.33 191.655 152.839 191.599 152.515ZM170.71 146.695C171.199 147.443 172.445 147.393 172.33 148.776C172.131 148.692 171.947 148.885 171.77 149.201C172.583 148.412 171.614 150.451 172.259 149.673C172.606 148.866 174.155 150.233 174.578 149.536C173.928 147.766 172.425 146.238 170.71 146.695ZM166.292 146.74C166.884 148.873 167.287 146.404 168.794 147.891C168.779 146.632 166.819 146.844 168.076 145.19C166.957 146.513 165.616 143.416 164.422 144.265C164.464 144.878 165.06 144.909 164.738 145.907C164.731 145.549 164.229 145.624 163.925 145.941C164.833 146.026 165.408 147.51 166.292 146.74ZM163.909 145.629C163.603 145.707 163.258 145.029 162.978 145.622C163.351 145.898 163.429 146.37 163.909 145.629ZM116.24 134.765C114.485 134.599 114.53 133.78 112.958 134.271C113.558 134.897 115.178 136.213 116.24 134.765ZM107.071 132.899C107.445 133.109 108.11 133.011 108.153 133.571C108.241 132.49 107.653 132.197 107.071 132.899ZM161.317 151.816C162.533 151.998 162.826 153.56 163.668 152.303C163.091 152.762 162.017 150.692 161.317 151.816ZM172.286 157.053C172.184 157.325 172.081 157.599 171.979 157.87C172.089 158.256 172.966 158.073 172.855 159.089C173.61 157.428 174.293 159.642 175.31 159.301C175.057 157.467 173.229 158.161 172.286 157.053ZM175.987 158.917C176.244 161.038 178.31 159.634 178.466 161.903C176.445 161.427 175.015 159.685 172.414 159.553C172.528 159.873 172.97 159.846 172.919 160.338C171.727 160.64 171.572 159.645 171.317 158.568C171.123 159.329 170.874 159.013 170.655 159.267C170.558 158.527 170.327 157.407 169.557 158.282C172.83 162.51 180.774 165.047 184.497 166.086C182.332 164.399 180.351 164.83 178.87 162.959C180.101 161.961 180.406 164.935 182.034 163.413C181.261 163.477 180.546 162.265 179.872 162.068C179.657 162.877 178.7 161.496 179.674 160.467C178.539 160.079 176.854 159.592 175.987 158.917ZM183.115 164.085C184.21 165.212 185.055 165.026 186.193 165.124C185.04 164.23 184.255 163.105 183.115 164.085ZM193.446 168.185C193.756 168.186 194.06 168.077 194.344 167.568C193.988 167.385 193.507 166.484 192.924 167.088C193.013 167.685 193.761 167.588 193.666 167.952C193.589 167.943 193.511 167.945 193.446 168.185ZM195.157 167.533C194.574 168.935 194.605 167.526 194.36 167.879C194.518 168.013 194.218 168.504 194.053 168.697C195.167 168.321 195.061 169.604 196.357 168.246C196.542 168.874 197.522 168.664 197.249 169.776C197.65 169.299 197.368 169.425 197.658 168.686C196.95 168.664 196.806 168.046 196.444 167.66C195.932 169.12 195.464 167.753 195.157 167.533ZM198.503 169.278C199.39 169.25 199.199 170.483 199.838 170.341C199.553 169.871 199.945 168.692 199.505 168.385C199.296 169.931 199.146 168.338 198.503 169.278ZM168.082 159.013C167.309 156.649 165.003 156.75 163.505 155.932C163.75 156.1 163.503 156.751 163.214 157.064C164.863 157.976 166.432 159.076 168.082 159.013ZM190.202 166.169C189.969 166.161 189.88 164.927 189.831 165.736C189.897 165.777 189.955 165.825 189.847 166.05C189.395 166.031 189.223 165.718 189.002 165.457C188.602 166.435 189.917 166.458 190.202 166.169ZM188.508 171.739C188.546 172.526 189.09 171.582 189.44 171.746C189.382 171.897 189.419 172.087 189.557 171.787C189.473 170.921 189.062 171.319 188.508 171.739ZM163.539 117.866C164.146 117.197 163.795 117.569 164.304 116.895C167.231 118.694 169.026 119.247 171.825 120.661C171.719 120.876 171.604 120.892 171.502 121.166C171.882 121.117 172.919 120.334 172.819 121.92C173.005 121.757 173.185 121.483 173.364 121.18C173.486 121.272 173.276 121.712 173.175 122.039C173.29 122.019 173.395 121.805 173.513 121.846C173.952 121.685 173.235 121.462 173.821 121.029C174.57 121.531 174.003 122.623 175.123 121.467C175.632 121.83 175.698 122.931 176.441 122.218C176.63 122.455 176.532 122.729 176.252 123.078C177.158 122.297 177.417 123.253 178.249 123.444C178.034 123.782 177.805 123.866 177.57 123.829C177.313 124.799 178.242 123.867 178.091 124.926C177.627 125.075 177.27 125.705 177.058 125.191C177.185 126.923 179.481 127.134 180.302 127.208C179.895 127.423 179.958 128.653 180.318 127.519C180.434 127.837 180.137 128.588 180.381 128.77C180.109 129.467 179.684 128.973 179.735 129.779C180.108 129.989 180.158 128.61 180.737 128.888C180.715 128.419 180.362 128.296 180.775 127.367C180.939 127.536 181.079 127.23 181.218 126.901C181.466 127.623 180.32 127.85 180.823 128.305C181.334 127.568 182.401 127.623 182.89 127.773C182.028 126.475 180.67 127.258 179.883 125.838C180.589 124.263 181.018 125.351 181.169 125.964C181.499 126.002 181.183 125.441 181.579 124.874C181.647 125.09 182.417 125.242 182.525 125.194C182.706 125.976 181.865 125.698 181.642 126.124C181.87 126.273 182.621 127.476 183.473 125.514C183.43 126.107 183.235 126.862 183.552 127.076C183.591 126.815 183.632 126.553 183.521 126.45C184.094 126.077 183.44 127.814 182.906 128.086C184.015 129.374 186.917 130.041 189.227 131.141C190.352 131.675 191.742 132.044 192.574 132.883C193.093 133.408 195.312 133.954 196.599 134.241C196.727 134.379 196.44 134.957 196.308 135.37C197.663 134.081 198.253 136.087 200.064 136.025C200.185 136.115 199.976 136.555 199.874 136.881C200.053 137.085 200.699 136.214 200.245 137.314C202.016 136.038 203.184 137.861 204.356 138.086C204.521 138.12 204.828 137.637 204.798 137.622C205.038 137.744 205.017 138.701 205.438 138.758C205.931 138.827 206.075 138.998 206.519 139.432C206.92 139.821 207.774 140.51 207.971 140.535C208.126 140.556 208.31 139.927 208.531 140.109C208.709 140.258 208.483 140.772 208.569 140.995C208.636 140.879 209.611 141.128 210.086 140.942C209.561 141.985 211.929 141.58 212.722 142.445C212.447 142.978 212.166 142.859 212.194 143.495C213.015 143.319 213.542 141.93 213.717 143.702C214.682 142.759 214.772 143.496 215.697 143.757C215.492 144.297 215.244 143.994 215.051 144.767C215.598 143.797 215.59 145.189 216.186 144.23C216.275 144.315 216.191 144.574 216.093 144.701C217.144 143.914 218.252 144.983 218.925 145.46C218.51 146.156 218.63 146.461 218.279 146.471C218.478 146.94 219.19 147.489 218.493 148.383C218.787 148.127 218.91 148.168 218.966 148.545C219.126 148.216 219.104 148.077 219.029 147.994C220.216 148.951 222.004 150.044 222.7 151.032C223.013 150.352 222.871 150.912 223.496 150.687C223.314 150.898 223.138 151.259 222.968 151.737C223.279 151.745 223.523 150.47 223.851 150.808C223.235 152.74 225.139 150.989 224.845 152.064C225.001 152.067 225.132 151.6 225.271 151.287C225.597 151.91 225.843 151.78 226.692 151.766C225.299 152.609 226.649 152.424 227.182 152.237C227.02 152.863 226.81 152.549 226.637 152.976C226.64 153.538 227.041 153.995 227.451 152.943C227.51 154.454 228.196 154.659 228.761 155.842C227.806 156.753 226.777 156.596 225.408 156.245C225.187 156.306 225.324 156.609 225.101 157.063C223.175 157.118 221.8 155.71 219.838 156.515C222.004 159.171 225.667 159.033 228.085 160.835C227.025 161.306 226.609 161.355 225.427 161.166C225.236 161.97 226.033 161.734 226.067 162.302C225.74 162.751 225.369 162.308 225.033 162.568C226.318 164.034 228.107 164.068 230.171 165.222C229.914 166.253 229.547 165.154 229.303 166.465C225.711 164.789 221.777 166.577 220.34 164.054C220.659 163.469 221.044 164.172 221.389 164.102C220.846 162.576 219.338 162.426 218.145 162.085C214.808 161.135 211.456 160.257 208.234 159.356C208.138 159.622 208.299 159.618 208.369 159.708C204.586 159.733 199.354 158.011 196.413 155.675C196.193 155.929 195.944 155.612 195.751 156.373C195.282 154.683 193.874 155.259 192.658 155.02C189.545 154.413 186.793 151.645 183.865 151.441C184.705 150.222 183.545 151.221 183.037 151.162C181.005 150.922 178.404 148.906 176.14 148.22C176.339 150.139 179.046 149.29 179.787 151.293C179.594 152.061 179.302 150.909 179.109 151.679C180.205 154.324 182.959 152.566 184.056 155.191C184.323 154.973 184.175 154.725 184.601 154.453C187.923 154.914 192.267 157.445 195.894 159.184C196.323 159.391 196.965 158.716 197.504 158.806C202.038 159.559 204.718 163.653 208.947 164.202C206.578 164.313 205.269 162.959 202.35 162.59C202.194 162.588 202.063 163.055 201.925 163.369C200.416 162.836 200.212 161.823 199.036 161.473C193.354 159.776 187.046 156.835 180.278 156.371C179.753 156.438 179.914 157.321 179.53 157.655C178.786 156.016 176.892 157.17 176.593 154.821C176.181 154.958 176.596 155.563 176.641 155.758C175.2 156.231 174.902 152.841 173.026 153.311C172.834 154.227 173.485 154.254 173.461 154.993C173.425 155.229 172.686 154.837 172.735 154.441C171.916 155.718 170.193 154.203 169.318 153.595C168.636 154.852 167.208 152.56 166.186 153.767C169.144 155.489 173.527 155.835 176.311 158.412C176.529 157.962 176.412 157.865 176.28 157.786C176.761 157.495 177.112 157.753 176.903 158.611C177.354 158.816 177.022 158.18 177.446 157.874C177.697 158.248 177.734 158.428 177.834 158.618C179.185 158.201 179.984 159.593 180.825 160.242C182.793 161.361 180.248 159.674 179.586 161.052C181.691 162.647 185.177 162.78 186.974 164.465C186.518 165.871 186.553 164.329 186.21 165.435C186.921 166.239 187.927 166.034 188.592 166.547C188.768 165.593 187.778 165.867 188.26 164.591C189.245 164.736 190.173 165.535 190.863 165.471C190.1 167.437 191.833 167.338 192.403 165.989C192.998 165.748 192.349 166.816 192.79 166.735C192.964 166.718 193.113 166.234 192.995 166.19C194.698 166.414 198.638 167.455 200.215 168.626C200.307 168.859 200.216 169.284 200.042 169.797C200.476 169.682 200.302 168.894 200.555 168.434C201.369 169.362 202.491 168.695 202.717 169.777C202.422 170.846 202.027 169.935 201.683 170.043C201.686 170.671 202.091 170.268 201.51 171.213C204.396 171.892 205.096 172.156 207.547 173.25C205.34 174.486 204.004 171.999 202.064 172.935C201.295 171.827 200.18 172.444 199.325 171.705C198.996 171.666 199.311 172.228 198.915 172.795C198.428 172.973 198.638 172.729 198.205 172.554C197.848 173.259 198.252 173.164 198.253 173.492C197.888 174.165 197.931 172.792 197.441 173.525C197.633 174.855 199.131 172.717 199.792 174.011C199.687 174.555 200.074 174.32 199.603 174.868C200.207 175 200.319 175.653 201.04 175.661C201.559 175.829 200.883 176.137 200.7 175.854C199.53 175.666 197.802 176.181 197.505 174.774C196.681 175.483 196.936 174.301 196.337 174.688C196.372 174.218 196.648 173.517 197.086 173.404C195.487 171.572 192.899 171.684 190.796 170.976C190.888 172.953 193.079 171.494 193.48 173.417C192.404 173.7 191.657 173.084 190.773 172.81C191.324 171.976 190.251 171.747 189.794 171.866C189.574 171.924 189.71 172.231 189.487 172.684C188.884 171.966 188.117 172.436 187.12 171.885C187.137 171.482 187.388 170.833 187.175 170.674C186.74 172.572 186.895 169.933 186.125 170.628C187.631 168.785 187.287 172.023 188.476 171.115C187.554 169.568 186.645 168.242 184.98 168.706C184.726 169.412 185.379 169.164 184.822 170.189C183.937 169.888 183.644 169.357 182.692 169.47C182.868 169.112 183.074 169.344 183.269 169.356C182.804 167.436 181.018 166.884 179.503 166.244C179.103 166.649 179.216 167.098 179.33 167.414C179.017 168.121 178.634 167.457 178.313 167.992C177.101 164.469 172.793 166.363 171.76 162.711C171.603 163.238 171.204 163.052 170.775 163.913C169.836 163.679 169.323 162.623 168.085 163.619C167.69 162.053 165.109 163.482 165.471 160.281C163.587 162.041 162.635 161.383 160.935 160.287C161.109 159.903 161.325 160.31 161.495 159.86C161.111 159.223 160.269 159.067 159.687 158.636C159.544 159.501 160.326 159.391 160.785 159.621C160.177 161.003 160.11 159.654 159.396 159.768C159.63 156.931 157.239 157.544 155.9 157.359C155.853 157.901 156.437 157.781 156.524 158.182C155.047 158.91 154.437 156.981 153.224 157.377C153.362 157.013 153.498 156.651 153.634 156.287C151.579 154.873 149.73 154.87 147.275 154.755C146.949 154.818 147.258 155.228 146.848 155.534C144.143 154.759 141.373 153.147 138.374 153.595C138.397 153.886 139.599 153.659 139.03 155.044C138.721 154.468 137.546 154.177 137.412 152.962C134.493 152.351 130.993 152.12 127.903 151.289C125.346 150.603 122.568 150.572 120.036 149.863C115.042 148.467 111.237 146.243 106.967 144.533C105.725 144.036 104.68 143.31 104.133 141.427C105.366 139.048 106.206 139.961 107.644 139.54C107.517 138.96 107.677 138.078 107.208 137.857C107.306 137.702 107.897 136.909 107.618 136.767C108.972 134.344 110.148 135.755 111.332 134.338C111.084 132.879 109.59 133.982 108.475 133.066C108.373 133.996 108.827 134.342 109.369 134.595C107.989 135.273 106.461 133.995 105.651 132.42C106.568 131.36 106.588 132.797 107.733 132.202C107.944 130.839 108.73 130.702 108.995 129.556C108.864 129.035 108.377 128.888 108.016 128.611C108.428 128.329 108.796 127.187 109.222 127.176C109.604 126.225 109.384 125.909 109.363 125.381C109.18 125.171 108.512 126.502 108.733 126.703C108.066 127.74 107.87 125.446 107.344 126.85C107.542 125.606 108.356 125.886 108.787 125.493C108.834 124.676 108.389 124.377 108.234 123.772C108.798 123.136 109.183 124.079 109.536 124.211C109.757 124.152 109.621 123.846 109.843 123.393C109.269 122.634 107.997 121.804 107.428 121.657C107.863 120.445 107.714 121.9 108.107 121.271C107.822 120.006 108.612 117.814 109.429 115.269C110.276 114.998 110.556 114.675 111.29 115.284C111.516 115.083 111.513 114.671 111.937 114.273C112.149 113.012 111.094 112.565 110.571 112.584C111.327 111.492 110.926 110.399 110.665 109.852C110.967 108.953 111.328 109.189 111.65 108.649C112.389 105.383 114.263 105.36 115.474 103.798C117.97 103.973 119.873 106.277 122.355 106.427C123.139 106.475 124.13 105.965 124.896 106.056C126.64 106.259 128.232 107.045 129.97 107.46C135.237 108.72 139.925 110.886 145.547 111.795C147.326 112.083 149.578 112.234 151.536 112.895C154.802 113.996 158.452 114.393 160.682 116.596C160.907 116.395 160.901 115.927 161.345 115.896C161.618 117.358 163.857 115.169 163.539 117.866Z" fill="#FF7B29" fill-opacity="0.3"/>
<path fill-rule="evenodd" clip-rule="evenodd" d="M143.787 75.4868C143.379 76.1007 143.615 74.8745 143.212 75.5982C143.502 76.2806 143.228 77.5567 143.797 77.9458C143.716 77.2595 143.984 77.2289 144.19 76.5436C143.774 77.4821 143.32 76.1313 143.787 75.4868ZM129.081 74.5153C128.834 74.5049 128.979 74.9869 128.757 75.0199C127.012 74.4773 125.335 72.8588 123.092 73.4168C121.957 71.9784 120.129 72.0772 118.696 71.6261C117.659 71.3001 116.726 70.1108 115.31 71.4055C117.273 72.2928 119.535 72.5623 121.009 73.6348C123.226 73.6856 125.664 74.9781 128.568 75.8779C128.669 76.1014 128.192 76.9331 128.396 77.0479C128.678 76.5053 128.972 76.1957 129.278 76.1184C133.16 77.8156 136.496 78.9283 139.016 80.0185C139.116 80.2583 138.756 81.8083 139.301 81.0352C139.226 80.9206 139.06 80.1224 139.372 80.1384C140.705 81.236 145.534 81.7401 146.893 83.9045C146.781 83.8018 146.822 83.5393 146.861 83.2786C148.829 84.172 151.015 83.8362 152.204 85.388C150.732 83.63 149.134 81.4584 146.813 82.3414C146.915 82.0687 147.018 81.796 147.12 81.5248C146.079 82.6386 145.713 80.1736 145.195 80.2592C143.042 82.3013 143.053 79.2246 141.288 78.9425C140.434 80.3517 139.269 79.0978 138.937 78.4555C135.976 77.6233 132.274 76.501 129.081 74.5153ZM153.292 83.9126C153.632 84.3866 153.056 84.637 152.764 84.9627C152.813 85.6693 153.479 85.699 154.066 85.4024C153.239 85.6628 154.097 83.7948 153.781 84.3855C153.584 84.3239 153.43 85.1188 153.237 85.1238C153.406 84.6455 153.582 84.2855 153.766 84.0728C153.355 84.3567 153.584 83.2205 153.292 83.9126ZM154.562 83.7278C154.213 86.4378 156.665 85.4309 157.412 87.1468C157.696 86.6359 158.001 86.5257 158.31 86.529C158.784 86.8517 159.808 87.9811 160.544 86.9748C160.115 86.8775 160.29 86.1442 160.022 85.8787C159.591 86.6331 158.507 86.4434 158.398 85.9428C158.84 84.8791 158.688 86.2687 159.076 85.5586C158.18 85.3834 155.768 85.7501 154.562 83.7278ZM160.678 87.3281C161.38 87.2767 161.755 88.847 162.556 87.6538C161.918 87.8921 161.194 86.5345 160.678 87.3281ZM149.954 84.6295C149.629 84.5419 149.151 85.0615 149.19 85.6002C149.471 85.7876 149.72 85.3544 149.954 84.6295ZM153.064 86.2946C152.891 86.6936 152.728 87.3145 152.535 87.3445C152.121 86.9588 151.029 86.4585 150.54 86.9761C154.228 89.1223 158.425 90.4441 160.681 91.9344C160.566 91.9632 160.444 91.8629 160.342 92.1276C160.674 92.5635 160.94 91.6816 161.241 91.5089C162.267 92.82 164.268 92.8199 165.183 93.8127C165.142 94.0636 165.314 94.0894 165.447 94.1561C165.377 94.0241 165.28 93.9191 165.183 93.8127C165.196 93.7334 165.23 93.6295 165.298 93.4917C166.434 94.194 166.976 93.331 167.224 94.7562C167.597 93.7324 168.087 94.9687 168.461 93.9464C164.503 91.6107 157.932 89.9856 153.838 87.783C153.902 86.9784 154.558 87.432 154.264 87.0044C153.872 87.6283 154.026 86.2967 153.569 87.0779C153.818 88.5473 153.126 87.2011 153.064 86.2946ZM182.618 97.8003C182.888 96.863 182.262 97.1732 181.907 97.5608C182.267 97.7863 182.136 98.5273 182.768 98.4663C182.991 98.0125 182.854 97.7079 183.075 97.6484C183.557 97.5802 182.809 98.8059 183.36 98.6653C183.528 98.1712 183.717 98.067 183.92 98.2387C184.42 96.7087 183.271 96.5396 182.618 97.8003ZM186.643 99.1584C186.434 98.3644 185.321 97.8716 184.598 97.8549C184.674 100.41 186.761 98.3434 186.943 100.488C187.12 100.162 187.305 99.9825 187.503 100.064C188.059 98.5205 187.173 98.776 186.643 99.1584ZM181.545 99.5897C182.036 99.4015 181.673 100.114 181.815 100.293C182.02 99.7527 182.267 100.056 182.46 99.2827C182.069 98.9915 182.051 98.7573 181.545 99.5897ZM170.98 95.4091C173.678 96.3688 175.789 98.2414 178.673 98.0041C176.381 97.0629 174.15 95.738 170.98 95.4091ZM167.907 92.2233C167.974 92.2631 168.033 92.3117 167.924 92.5363C167.726 92.4511 167.542 92.6429 167.364 92.9604C167.733 93.3518 168.047 92.6774 168.381 92.3833C168.063 92.569 168.292 91.4341 167.907 92.2233ZM169.827 95.6341C170.175 94.8515 170.603 95.6518 170.963 95.0959C170.752 94.9343 170.853 94.4441 170.797 94.1184C169.579 95.1526 169.761 93.2885 168.477 94.257C168.639 95.3083 170.639 94.3656 169.827 95.6341ZM155.584 92.3632C155.744 92.5432 155.428 92.7061 155.277 93.1811C155.994 92.6238 155.214 94.1784 155.885 93.693C155.696 93.4577 155.794 93.1836 156.074 92.8351C155.944 92.7292 155.791 91.849 155.584 92.3632ZM177.776 103.23C177.521 103.552 177.283 104.205 177.012 104.2C177.473 102.847 176.12 103.074 176.08 104.194C176.598 103.387 177.6 105.528 179.158 105.232C179.273 103.373 178.413 103.866 177.776 103.23ZM184.129 106.91C184.547 106.893 184.948 108.331 185.313 107.309C185.234 106.968 184.641 105.734 184.129 106.91ZM186.987 108.18C187.003 108.711 187.503 108.635 187.799 108.148C187.576 107.857 187.413 107.715 186.987 108.18ZM187.815 108.459C187.858 109.133 188.76 109.762 189.37 109.292C188.762 108.888 188.481 108.004 187.815 108.459ZM117.955 86.7299C118.59 87.4372 119.151 87.8802 119.849 87.3687C119.659 86.7953 118.484 86.3981 117.955 86.7299ZM120.204 87.4883C120.403 87.6233 120.723 88.4565 121.15 87.8082C121.135 87.4801 120.517 86.9588 120.204 87.4883ZM110.04 84.3669C109.457 83.7373 108.413 83.9363 107.688 83.8796C108.298 84.2886 108.872 84.6911 110.04 84.3669ZM114.301 85.8044C115.432 86.1133 116.678 86.9811 117.82 86.3778C116.195 86.1636 115.654 85.1666 114.301 85.8044ZM166.966 101.119C166.772 100.979 166.229 99.8731 165.799 101.03C166.44 100.967 166.412 101.959 166.966 101.119ZM175.741 104.386C176.105 103.557 175.588 103.084 175.252 103.914C175.273 104.594 175.724 103.803 175.741 104.386ZM184.216 106.323C182.771 106.694 181.993 104.643 180.342 105.631C181.74 105.869 182.44 107.547 184.216 106.323ZM172.174 102.875C173.311 102.969 174.124 104.772 175.339 103.328C174.162 103.449 173.388 101.15 172.174 102.875ZM143.839 96.9995C144.12 97.6366 144.951 97.6939 144.968 98.6088C144.17 98.0043 142.43 96.971 141.67 97.8031C143.73 98.9517 145.889 98.9774 147.636 100.737C147.583 100.957 147.437 101.276 147.55 101.322C147.686 100.959 147.823 100.595 147.959 100.231C148.162 100.765 149.211 101.283 149.718 100.519C149.055 99.0085 147.448 98.4241 146.34 98.1502C146.333 98.3072 146.764 98.7473 146.373 98.7761C145.787 98.018 144.701 96.9176 143.839 96.9995ZM152.173 100.733C151.68 101.155 151.843 100.152 151.36 100.764C151.509 100.901 151.418 102.105 151.747 101.509C151.676 101.419 151.695 101.235 151.833 100.925C151.992 101.002 152.309 101.017 152.173 100.733ZM152.409 100.812C152.273 101.175 152.136 101.539 151.999 101.902C154.008 103.409 155.504 103.337 157.831 104.485C156.583 101.434 154.035 103.245 152.409 100.812ZM158.305 104.644C158.629 105.282 160.86 104.792 160.113 105.867C160.093 106.203 161.421 105.342 161.367 105.37C160.553 104.916 159.026 103.704 158.305 104.644ZM162.077 105.61C161.941 105.985 161.796 106.189 161.651 106.388C161.819 106.648 161.804 107.498 162.243 106.587C162.032 106.425 162.133 105.935 162.077 105.61ZM141.189 99.7903C141.678 100.538 142.923 100.488 142.808 101.871C142.61 101.787 142.425 101.98 142.249 102.296C143.062 101.508 142.092 103.546 142.737 102.768C143.084 101.961 144.633 103.329 145.056 102.631C144.406 100.861 142.904 99.3332 141.189 99.7903ZM136.77 99.8353C137.362 101.969 137.766 99.4992 139.273 100.986C139.258 99.7273 137.297 99.939 138.554 98.2855C137.435 99.6087 136.094 96.5115 134.9 97.3601C134.943 97.973 135.538 98.0043 135.216 99.0022C135.209 98.6447 134.708 98.7197 134.403 99.0367C135.312 99.121 135.887 100.605 136.77 99.8353ZM134.387 98.7238C134.081 98.8024 133.737 98.124 133.456 98.7167C133.829 98.9927 133.908 99.4649 134.387 98.7238ZM86.7187 87.8607C84.964 87.694 85.0087 86.8754 83.4366 87.3665C84.036 87.9922 85.657 89.3085 86.7187 87.8607ZM77.5498 85.9942C77.9237 86.2043 78.5887 86.1065 78.6316 86.6663C78.7195 85.5848 78.1315 85.2924 77.5498 85.9942ZM131.796 104.911C133.011 105.093 133.305 106.655 134.147 105.398C133.569 105.857 132.495 103.787 131.796 104.911ZM142.765 110.148C142.663 110.42 142.56 110.694 142.458 110.966C142.568 111.351 143.445 111.168 143.334 112.184C144.089 110.523 144.771 112.737 145.788 112.396C145.536 110.562 143.707 111.256 142.765 110.148ZM146.466 112.012C146.722 114.133 148.789 112.73 148.945 114.998C146.923 114.522 145.494 112.781 142.892 112.648C143.006 112.968 143.448 112.941 143.398 113.433C142.206 113.735 142.05 112.74 141.795 111.664C141.601 112.425 141.353 112.108 141.133 112.362C141.036 111.622 140.806 110.502 140.036 111.377C143.308 115.606 151.252 118.142 154.976 119.182C152.811 117.494 150.829 117.925 149.348 116.054C150.58 115.056 150.885 118.031 152.512 116.508C151.739 116.572 151.025 115.36 150.35 115.163C150.136 115.972 149.179 114.592 150.152 113.562C149.018 113.174 147.333 112.687 146.466 112.012ZM153.594 117.18C154.689 118.307 155.534 118.121 156.671 118.219C155.518 117.325 154.733 116.2 153.594 117.18ZM163.924 121.281C164.234 121.282 164.539 121.172 164.823 120.663C164.467 120.48 163.985 119.579 163.402 120.183C163.492 120.78 164.24 120.683 164.144 121.047C164.068 121.038 163.99 121.041 163.924 121.281ZM165.636 120.629C165.053 122.03 165.084 120.622 164.839 120.975C164.997 121.108 164.696 121.6 164.531 121.792C165.646 121.416 165.54 122.699 166.835 121.341C167.02 121.97 168.001 121.759 167.728 122.871C168.129 122.395 167.847 122.52 168.137 121.782C167.429 121.759 167.284 121.142 166.922 120.755C166.411 122.215 165.942 120.848 165.636 120.629ZM168.981 122.373C169.869 122.345 169.677 123.578 170.317 123.436C170.032 122.967 170.423 121.787 169.984 121.481C169.774 123.026 169.624 121.433 168.981 122.373ZM138.56 112.108C137.787 109.744 135.481 109.845 133.984 109.027C134.229 109.196 133.982 109.847 133.692 110.159C135.341 111.071 136.911 112.172 138.56 112.108ZM160.68 119.265C160.448 119.256 160.358 118.022 160.309 118.831C160.376 118.872 160.434 118.92 160.325 119.145C159.873 119.126 159.702 118.813 159.481 118.552C159.08 119.531 160.396 119.553 160.68 119.265ZM158.987 124.834C159.025 125.621 159.569 124.678 159.918 124.842C159.861 124.993 159.898 125.182 160.036 124.882C159.952 124.016 159.54 124.414 158.987 124.834ZM134.018 70.9612C134.624 70.2923 134.273 70.6644 134.782 69.9905C137.709 71.7895 139.505 72.3423 142.303 73.7566C142.198 73.9707 142.083 73.9876 141.98 74.2614C142.36 74.2127 143.398 73.4288 143.298 75.0152C143.483 74.8525 143.664 74.5787 143.842 74.2757C143.965 74.3669 143.755 74.8075 143.653 75.1337C143.768 75.1143 143.874 74.9 143.992 74.9415C144.43 74.7799 143.713 74.5575 144.299 74.1239C145.049 74.6265 144.481 75.7186 145.602 74.5625C146.11 74.9256 146.176 76.0259 146.92 75.3136C147.108 75.55 147.01 75.8244 146.731 76.173C147.637 75.3919 147.896 76.3481 148.727 76.5391C148.512 76.8776 148.283 76.9611 148.049 76.9242C147.792 77.894 148.721 76.9618 148.57 78.0216C148.105 78.1705 147.749 78.8003 147.537 78.2859C147.664 80.0181 149.96 80.2289 150.78 80.3028C150.373 80.5181 150.436 81.7485 150.797 80.6146C150.912 80.932 150.616 81.6836 150.86 81.8647C150.588 82.5621 150.163 82.0683 150.214 82.8745C150.586 83.084 150.637 81.7049 151.216 81.9833C151.193 81.5145 150.841 81.3907 151.253 80.4627C151.418 80.6311 151.557 80.3249 151.696 79.9961C151.945 80.7181 150.799 80.9457 151.301 81.4001C151.813 80.6636 152.88 80.7178 153.369 80.8681C152.506 79.5707 151.149 80.3535 150.362 78.9331C151.067 77.3586 151.497 78.4466 151.648 79.0597C151.977 79.0967 151.662 78.536 152.057 77.9694C152.126 78.1855 152.896 78.3373 153.004 78.2893C153.185 79.0711 152.344 78.7931 152.121 79.2196C152.348 79.3681 153.099 80.5707 153.951 78.6095C153.909 79.2027 153.713 79.9568 154.031 80.1712C154.07 79.9106 154.111 79.6483 153.999 79.5456C154.572 79.1719 153.919 80.9094 153.385 81.181C154.494 82.4693 157.396 83.1357 159.706 84.236C160.831 84.7701 162.22 85.1394 163.052 85.9781C163.572 86.5027 165.79 87.0493 167.077 87.3362C167.206 87.4741 166.918 88.0524 166.786 88.4657C168.142 87.1763 168.731 89.1826 170.542 89.1199C170.663 89.2106 170.455 89.6504 170.353 89.9765C170.532 90.1804 171.177 89.3096 170.724 90.409C172.494 89.1337 173.663 90.9558 174.835 91.1817C175 91.2151 175.307 90.7326 175.276 90.717C175.517 90.8395 175.496 91.7959 175.916 91.8536C176.41 91.9226 176.554 92.0936 176.998 92.5269C177.398 92.9162 178.253 93.6049 178.45 93.6301C178.605 93.6507 178.788 93.0218 179.01 93.2046C179.188 93.3536 178.962 93.8672 179.048 94.09C179.114 93.9739 180.089 94.2228 180.564 94.0377C180.04 95.08 182.408 94.6751 183.2 95.5403C182.926 96.0729 182.644 95.9543 182.673 96.5906C183.493 96.4147 184.02 95.025 184.195 96.7977C185.16 95.8547 185.25 96.5913 186.175 96.8521C185.971 97.3922 185.723 97.0888 185.529 97.862C186.077 96.8921 186.069 98.2839 186.664 97.3248C186.753 97.4098 186.67 97.6687 186.572 97.7962C187.622 97.0095 188.731 98.078 189.404 98.5552C188.989 99.2509 189.109 99.5558 188.757 99.566C188.957 100.035 189.668 100.585 188.971 101.479C189.266 101.223 189.388 101.263 189.444 101.64C189.604 101.311 189.583 101.172 189.508 101.09C190.695 102.047 192.482 103.14 193.178 104.127C193.491 103.447 193.35 104.008 193.974 103.782C193.792 103.993 193.616 104.354 193.446 104.832C193.757 104.84 194.002 103.565 194.33 103.903C193.714 105.835 195.617 104.084 195.324 105.159C195.48 105.162 195.611 104.695 195.75 104.382C196.075 105.005 196.322 104.875 197.171 104.861C195.778 105.704 197.127 105.519 197.66 105.333C197.499 105.958 197.288 105.644 197.116 106.071C197.118 106.633 197.52 107.091 197.929 106.038C197.988 107.549 198.675 107.754 199.24 108.937C198.285 109.848 197.255 109.691 195.887 109.34C195.666 109.401 195.803 109.705 195.58 110.158C193.654 110.213 192.278 108.805 190.317 109.611C192.483 112.266 196.146 112.128 198.564 113.93C197.503 114.401 197.088 114.451 195.905 114.261C195.715 115.065 196.512 114.829 196.545 115.397C196.219 115.846 195.847 115.403 195.512 115.663C196.797 117.129 198.586 117.164 200.65 118.317C200.392 119.348 200.025 118.249 199.782 119.56C196.19 117.884 192.255 119.672 190.818 117.149C191.137 116.565 191.522 117.268 191.867 117.197C191.325 115.671 189.817 115.521 188.624 115.18C185.287 114.23 181.934 113.353 178.712 112.451C178.616 112.717 178.777 112.713 178.847 112.804C175.065 112.828 169.833 111.106 166.891 108.771C166.671 109.024 166.423 108.707 166.23 109.468C165.761 107.778 164.352 108.354 163.136 108.115C160.024 107.509 157.271 104.741 154.344 104.536C155.183 103.318 154.024 104.316 153.516 104.257C151.484 104.017 148.882 102.002 146.618 101.315C146.817 103.234 149.524 102.385 150.265 104.389C150.072 105.157 149.781 104.005 149.587 104.774C150.683 107.419 153.437 105.662 154.535 108.286C154.801 108.069 154.654 107.821 155.08 107.548C158.402 108.009 162.745 110.54 166.372 112.28C166.802 112.486 167.443 111.812 167.983 111.901C172.517 112.654 175.197 116.748 179.426 117.297C177.057 117.408 175.748 116.054 172.828 115.686C172.673 115.683 172.542 116.15 172.403 116.464C170.894 115.931 170.691 114.918 169.514 114.568C163.832 112.872 157.525 109.93 150.757 109.466C150.232 109.533 150.392 110.417 150.008 110.75C149.265 109.111 147.37 110.266 147.072 107.916C146.66 108.053 147.074 108.658 147.119 108.854C145.679 109.326 145.38 105.936 143.504 106.407C143.312 107.322 143.963 107.349 143.94 108.088C143.903 108.324 143.164 107.932 143.213 107.536C142.394 108.813 140.672 107.298 139.797 106.69C139.114 107.947 137.687 105.655 136.665 106.862C139.623 108.584 144.005 108.93 146.789 111.507C147.008 111.057 146.891 110.96 146.758 110.882C147.24 110.59 147.591 110.848 147.381 111.706C147.832 111.911 147.501 111.275 147.925 110.969C148.176 111.344 148.212 111.523 148.313 111.713C149.663 111.296 150.463 112.689 151.304 113.337C153.271 114.456 150.726 112.769 150.065 114.147C152.17 115.742 155.656 115.875 157.452 117.56C156.996 118.966 157.031 117.425 156.688 118.53C157.399 119.334 158.405 119.129 159.071 119.643C159.246 118.689 158.257 118.962 158.738 117.686C159.724 117.831 160.652 118.63 161.342 118.566C160.579 120.532 162.312 120.433 162.881 119.084C163.476 118.843 162.827 119.911 163.268 119.83C163.442 119.813 163.592 119.329 163.473 119.285C165.176 119.509 169.116 120.55 170.694 121.721C170.785 121.954 170.695 122.379 170.521 122.892C170.955 122.777 170.78 121.99 171.033 121.529C171.848 122.457 172.969 121.79 173.196 122.872C172.9 123.941 172.506 123.03 172.162 123.139C172.165 123.766 172.57 123.363 171.989 124.308C174.874 124.988 175.574 125.252 178.026 126.345C175.818 127.581 174.483 125.094 172.542 126.03C171.773 124.922 170.659 125.54 169.804 124.8C169.474 124.762 169.79 125.324 169.394 125.89C168.907 126.068 169.117 125.824 168.684 125.65C168.327 126.355 168.731 126.259 168.732 126.587C168.366 127.26 168.409 125.887 167.919 126.62C168.112 127.95 169.609 125.812 170.27 127.106C170.165 127.651 170.553 127.415 170.082 127.963C170.686 128.095 170.797 128.748 171.518 128.756C172.037 128.924 171.362 129.232 171.178 128.949C170.009 128.762 168.281 129.276 167.983 127.869C167.16 128.578 167.414 127.396 166.815 127.783C166.85 127.313 167.126 126.612 167.564 126.5C165.966 124.667 163.378 124.779 161.274 124.071C161.366 126.049 163.558 124.589 163.958 126.513C162.882 126.795 162.136 126.179 161.252 125.906C161.803 125.071 160.73 124.842 160.273 124.961C160.053 125.02 160.188 125.326 159.966 125.779C159.363 125.061 158.596 125.532 157.598 124.98C157.616 124.577 157.867 123.928 157.653 123.769C157.218 125.667 157.374 123.029 156.604 123.723C158.11 121.881 157.765 125.119 158.955 124.21C158.032 122.663 157.124 121.338 155.459 121.801C155.204 122.508 155.857 122.26 155.301 123.284C154.416 122.983 154.122 122.453 153.17 122.565C153.346 122.208 153.552 122.439 153.747 122.451C153.283 120.531 151.496 119.979 149.982 119.339C149.582 119.745 149.695 120.194 149.809 120.509C149.495 121.217 149.113 120.552 148.791 121.088C147.58 117.564 143.272 119.459 142.239 115.806C142.081 116.333 141.682 116.148 141.254 117.008C140.314 116.774 139.801 115.718 138.563 116.714C138.168 115.148 135.587 116.577 135.95 113.376C134.065 115.137 133.114 114.478 131.413 113.382C131.587 112.998 131.803 113.405 131.973 112.956C131.589 112.318 130.748 112.162 130.166 111.731C130.022 112.596 130.804 112.486 131.263 112.716C130.655 114.098 130.589 112.749 129.875 112.863C130.109 110.026 127.717 110.639 126.378 110.454C126.332 110.996 126.915 110.876 127.002 111.278C125.525 112.005 124.915 110.076 123.703 110.473C123.84 110.108 123.976 109.746 124.113 109.382C122.057 107.968 120.208 107.965 117.753 107.85C117.428 107.914 117.737 108.324 117.327 108.629C114.621 107.855 111.851 106.242 108.853 106.69C108.876 106.981 110.077 106.754 109.508 108.139C109.2 107.563 108.025 107.273 107.89 106.057C104.972 105.446 101.472 105.215 98.3811 104.384C95.8244 103.698 93.0461 103.667 90.5147 102.959C85.521 101.562 81.7155 99.3378 77.446 97.6281C76.2034 97.1307 75.1581 96.4051 74.6119 94.5221C75.8448 92.1431 76.6842 93.0561 78.1221 92.6355C77.9953 92.0551 78.1553 91.173 77.6869 90.9525C77.7842 90.7976 78.3756 90.0046 78.0966 89.8622C79.4504 87.4388 80.6264 88.8504 81.8108 87.4328C81.5629 85.9739 80.0681 87.0771 78.954 86.1612C78.8519 87.0916 79.3055 87.4377 79.8476 87.6903C78.4671 88.3682 76.9394 87.0904 76.1294 85.5154C77.0468 84.4553 77.0663 85.8927 78.2119 85.2973C78.422 83.934 79.209 83.7973 79.4734 82.6512C79.3424 82.1303 78.8557 81.9834 78.4946 81.7067C78.9063 81.4244 79.2745 80.2817 79.7006 80.2715C80.0828 79.3201 79.8621 79.0038 79.8418 78.4761C79.6588 78.2666 78.9909 79.5969 79.2112 79.7986C78.5442 80.8354 78.3488 78.5414 77.8226 79.9456C78.021 78.7013 78.8345 78.9816 79.2658 78.5886C79.3126 77.7708 78.8675 77.4723 78.7127 76.8667C79.2762 76.2308 79.6619 77.1746 80.0148 77.3064C80.2351 77.2469 80.0997 76.9414 80.3216 76.4886C79.7472 75.7295 78.476 74.8988 77.9068 74.7526C78.3414 73.5406 78.1927 74.9952 78.5856 74.3664C78.3009 73.1013 79.0905 70.9092 79.9078 68.3639C80.7549 68.0931 81.034 67.7702 81.769 68.3792C81.9944 68.1786 81.9912 67.7666 82.4159 67.3684C82.628 66.1072 81.5727 65.6598 81.0497 65.6796C81.8059 64.5874 81.4047 63.4946 81.143 62.9468C81.4452 62.0478 81.807 62.2845 82.1287 61.744C82.8674 58.4782 84.7417 58.4556 85.9526 56.8935C88.449 57.0685 90.3516 59.3718 92.8337 59.5218C93.618 59.5699 94.6081 59.0604 95.3742 59.1509C97.1183 59.3538 98.7106 60.1403 100.448 60.5551C105.716 61.8155 110.403 63.981 116.025 64.8901C117.805 65.1779 120.057 65.3292 122.014 65.9898C125.281 67.0914 128.931 67.4879 131.161 69.6907C131.386 69.4901 131.38 69.0224 131.823 68.9916C132.096 70.4536 134.335 68.2639 134.018 70.9612Z" fill="#FF7B29" fill-opacity="0.3"/>
<path fill-rule="evenodd" clip-rule="evenodd" d="M93.9305 163.48C94.3327 162.862 94.1084 164.09 94.505 163.363C94.2081 162.683 94.4712 161.405 93.8988 161.021C93.9862 161.707 93.718 161.74 93.5185 162.427C93.9259 161.484 94.3915 162.831 93.9305 163.48ZM108.645 164.319C108.892 164.327 108.743 163.846 108.964 163.811C110.714 164.338 112.406 165.941 114.644 165.363C115.791 166.791 117.619 166.676 119.056 167.114C120.096 167.431 121.039 168.611 122.443 167.304C120.473 166.434 118.208 166.185 116.725 165.126C114.507 165.095 112.058 163.825 109.145 162.951C109.042 162.729 109.512 161.893 109.307 161.78C109.03 162.325 108.739 162.637 108.434 162.717C104.536 161.055 101.19 159.973 98.6603 158.905C98.5586 158.666 98.9046 157.113 98.3666 157.891C98.4426 158.005 98.6157 158.802 98.3037 158.789C96.9608 157.703 92.1276 157.243 90.7489 155.09C90.8614 155.192 90.823 155.455 90.7868 155.716C88.8107 154.84 86.6282 155.196 85.4253 153.655C86.9127 155.4 88.5297 157.557 90.8426 156.653C90.7431 156.926 90.6431 157.2 90.5431 157.472C91.5743 156.349 91.9629 158.811 92.4798 158.72C94.6142 156.659 94.6315 159.736 96.3983 160.002C97.2402 158.585 98.4163 159.828 98.7537 160.467C101.722 161.273 105.435 162.362 108.645 164.319ZM84.3505 155.14C84.006 154.669 84.5795 154.414 84.8687 154.085C84.8128 153.379 84.1474 153.355 83.5627 153.657C84.3872 153.389 83.5461 155.265 83.8568 154.672C84.0546 154.731 84.2011 153.935 84.3942 153.928C84.2294 154.408 84.0569 154.77 83.8752 154.984C84.2835 154.697 84.0643 155.835 84.3505 155.14ZM83.082 155.336C83.406 152.623 80.9639 153.652 80.2012 151.943C79.9219 152.457 79.618 152.57 79.3085 152.569C78.8316 152.251 77.798 151.13 77.071 152.143C77.5006 152.237 77.3319 152.972 77.6022 153.235C78.0266 152.476 79.1128 152.656 79.226 153.156C78.794 154.224 78.9334 152.833 78.552 153.546C79.4486 153.713 81.8578 153.325 83.082 155.336ZM76.9331 151.791C76.2325 151.849 75.8431 150.282 75.0526 151.483C75.6881 151.239 76.4252 152.59 76.9331 151.791ZM87.6811 154.393C88.0077 154.478 88.4806 153.954 88.4372 153.416C88.1543 153.231 87.9089 153.666 87.6811 154.393ZM84.5571 152.756C84.7261 152.356 84.8837 151.733 85.0757 151.701C85.494 152.083 86.5899 152.574 87.0745 152.052C83.3677 149.939 79.1586 148.655 76.8893 147.185C77.0034 147.155 77.1264 147.255 77.2267 146.989C76.8903 146.556 76.6328 147.44 76.3331 147.616C75.2951 146.314 73.2947 146.332 72.3704 145.348C72.4087 145.096 72.2367 145.072 72.1031 145.007C72.1739 145.138 72.2722 145.242 72.3704 145.348C72.3578 145.427 72.3246 145.531 72.2585 145.67C71.1156 144.978 70.5821 145.845 70.3213 144.423C69.9574 145.45 69.4559 144.218 69.0916 145.243C73.07 147.543 79.6552 149.109 83.7693 151.275C83.7124 152.08 83.0527 151.632 83.3506 152.057C83.737 151.43 83.595 152.763 84.0442 151.977C83.7828 150.51 84.4868 151.85 84.5571 152.756ZM54.9001 141.517C54.6384 142.457 55.2622 142.141 55.6129 141.751C55.251 141.528 55.3758 140.786 54.7443 140.853C54.5256 141.309 54.6646 141.612 54.4447 141.673C53.9635 141.746 54.6997 140.514 54.1506 140.659C53.9865 141.155 53.7987 141.261 53.594 141.091C53.1079 142.625 54.2588 142.784 54.9001 141.517ZM50.8633 140.196C51.0796 140.988 52.1964 141.471 52.9192 141.481C52.8205 138.927 50.7523 141.012 50.5513 138.869C50.3768 139.196 50.1935 139.378 49.9951 139.298C49.4523 140.846 50.3368 140.583 50.8633 140.196ZM55.9565 139.718C55.4675 139.911 55.8246 139.195 55.6807 139.018C55.4808 139.56 55.2303 139.259 55.0442 140.034C55.4388 140.321 55.4584 140.555 55.9565 139.718ZM66.5595 143.804C63.8529 142.868 61.7253 141.015 58.843 141.278C61.1431 142.199 63.3865 143.503 66.5595 143.804ZM69.6603 146.962C69.5935 146.922 69.5343 146.874 69.6411 146.649C69.8396 146.732 70.022 146.539 70.1972 146.22C69.825 145.831 69.5162 146.509 69.1853 146.806C69.5018 146.617 69.2826 147.754 69.6603 146.962ZM67.7097 143.568C67.3689 144.354 66.9337 143.558 66.5791 144.117C66.7914 144.276 66.6948 144.767 66.7537 145.093C67.9621 144.047 67.7969 145.913 69.072 144.933C68.9012 143.883 66.9096 144.844 67.7097 143.568ZM81.982 146.71C81.8201 146.532 82.1352 146.366 82.2815 145.89C81.5693 146.454 82.3358 144.892 81.6691 145.383C81.8605 145.617 81.7647 145.892 81.4875 146.243C81.6184 146.348 81.7793 147.227 81.982 146.71ZM59.6928 136.044C59.9447 135.72 60.1766 135.064 60.448 135.068C59.9997 136.425 61.3501 136.185 61.3799 135.065C60.869 135.877 59.8482 133.745 58.293 134.055C58.1949 135.915 59.0501 135.414 59.6928 136.044ZM53.3064 132.422C52.8886 132.443 52.4756 131.008 52.1195 132.033C52.2011 132.373 52.8056 133.602 53.3064 132.422ZM50.4378 131.177C50.4168 130.647 49.9171 130.727 49.6258 131.217C49.8517 131.506 50.0155 131.646 50.4378 131.177ZM49.6066 130.906C49.5582 130.233 48.6503 129.612 48.0448 130.087C48.6567 130.486 48.9448 131.367 49.6066 130.906ZM119.661 152.004C119.018 151.303 118.454 150.865 117.761 151.382C117.956 151.954 119.134 152.341 119.661 152.004ZM117.405 151.266C117.205 151.133 116.876 150.303 116.455 150.955C116.473 151.283 117.097 151.798 117.405 151.266ZM127.597 154.296C128.185 154.92 129.227 154.712 129.953 154.762C129.339 154.358 128.762 153.961 127.597 154.296ZM123.323 152.897C122.189 152.598 120.935 151.741 119.799 152.355C121.425 152.555 121.975 153.547 123.323 152.897ZM70.5216 138.058C70.7172 138.196 71.2701 139.297 71.6897 138.136C71.0489 138.205 71.0675 137.213 70.5216 138.058ZM61.7169 134.87C61.3613 135.702 61.8821 136.17 62.2106 135.337C62.1831 134.657 61.7392 135.452 61.7169 134.87ZM53.2252 133.009C54.6668 132.625 55.4637 134.67 57.1053 133.666C55.7055 133.442 54.9904 131.77 53.2252 133.009ZM65.2975 136.349C64.16 136.265 63.3309 134.469 62.129 135.925C63.305 135.792 64.0995 138.085 65.2975 136.349ZM93.6851 141.968C93.3984 141.334 92.5661 141.284 92.5415 140.369C93.3448 140.967 95.0944 141.984 95.8467 141.145C93.7762 140.015 91.6171 140.009 89.8545 138.265C89.9052 138.044 90.0481 137.725 89.9349 137.68C89.8022 138.043 89.6686 138.409 89.5354 138.774C89.3278 138.242 88.2748 137.733 87.7741 138.502C88.4504 140.007 90.063 140.576 91.1731 140.84C91.179 140.683 90.7438 140.247 91.1351 140.215C91.7273 140.968 92.8239 142.058 93.6851 141.968ZM85.3175 138.311C85.8062 137.883 85.653 138.888 86.1302 138.272C85.9798 138.136 86.0603 136.932 85.7361 137.531C85.8076 137.62 85.7911 137.804 85.6557 138.115C85.4962 138.039 85.1792 138.027 85.3175 138.311ZM85.0804 138.234C85.2136 137.869 85.3467 137.504 85.4803 137.14C83.4587 135.651 81.9634 135.737 79.626 134.609C80.9017 137.649 83.4326 135.815 85.0804 138.234ZM79.1506 134.455C78.8209 133.819 76.594 134.329 77.3318 133.248C77.3479 132.912 76.0279 133.784 76.0816 133.757C76.9004 134.203 78.4375 135.401 79.1506 134.455ZM75.3697 133.523C75.5025 133.146 75.6452 132.942 75.7884 132.741C75.6185 132.482 75.6254 131.632 75.1947 132.548C75.407 132.707 75.3108 133.199 75.3697 133.523ZM96.3095 139.154C95.8141 138.41 94.569 138.471 94.6715 137.087C94.8708 137.17 95.0532 136.975 95.2272 136.658C94.421 137.453 95.3721 135.406 94.7344 136.19C94.3947 137.001 92.8334 135.647 92.4165 136.348C93.0825 138.112 94.5989 139.626 96.3095 139.154ZM100.727 139.069C100.116 136.941 99.7354 139.414 98.215 137.941C98.2414 139.199 100.2 138.97 98.9578 140.635C100.065 139.302 101.434 142.387 102.62 141.527C102.572 140.915 101.976 140.889 102.289 139.888C102.299 140.245 102.8 140.166 103.102 139.846C102.192 139.77 101.604 138.291 100.727 139.069ZM103.12 140.159C103.426 140.078 103.776 140.753 104.051 140.158C103.676 139.885 103.593 139.414 103.12 140.159ZM150.885 150.592C152.641 150.742 152.604 151.561 154.172 151.056C153.566 150.436 151.934 149.134 150.885 150.592ZM160.07 152.375C159.695 152.169 159.031 152.272 158.983 151.713C158.905 152.795 159.495 153.082 160.07 152.375ZM105.656 133.948C104.439 133.778 104.131 132.218 103.301 133.482C103.874 133.018 104.967 135.079 105.656 133.948ZM94.6401 128.811C94.74 128.537 94.8404 128.263 94.94 127.99C94.8265 127.606 93.951 127.796 94.0531 126.78C93.3127 128.448 92.6103 126.24 91.5968 126.59C91.8654 128.421 93.6876 127.711 94.6401 128.811ZM90.9224 126.98C90.6471 124.862 88.5935 126.284 88.4166 124.016C90.4424 124.474 91.8876 126.203 94.49 126.312C94.3733 125.993 93.9317 126.024 93.9776 125.532C95.1668 125.219 95.3312 126.212 95.5961 127.287C95.7834 126.524 96.0346 126.838 96.2518 126.582C96.3557 127.321 96.596 128.439 97.3582 127.557C94.0477 123.358 86.0809 120.893 82.3485 119.888C84.5283 121.556 86.506 121.107 88.0037 122.964C86.7813 123.973 86.4497 121.002 84.836 122.539C85.6083 122.468 86.3336 123.673 87.0098 123.864C87.2171 123.053 88.1864 124.425 87.2222 125.463C88.3602 125.841 90.0496 126.313 90.9224 126.98ZM83.7483 121.877C82.643 120.76 81.7996 120.953 80.6617 120.865C81.8223 121.749 82.6177 122.867 83.7483 121.877ZM73.3814 117.87C73.0711 117.871 72.7676 117.983 72.4883 118.495C72.8462 118.674 73.3354 119.571 73.913 118.962C73.8184 118.366 73.071 118.47 73.1631 118.105C73.2402 118.113 73.3181 118.11 73.3814 117.87ZM71.6755 118.537C72.246 117.13 72.2279 118.539 72.4695 118.184C72.3103 118.052 72.6063 117.557 72.7694 117.363C71.6586 117.749 71.753 116.466 70.4699 117.836C70.2791 117.208 69.3003 117.428 69.5634 116.314C69.167 116.793 69.4475 116.665 69.1643 117.407C69.8725 117.423 70.0227 118.039 70.3883 118.422C70.8862 116.958 71.3672 118.32 71.6755 118.537ZM68.3145 116.823C67.4276 116.859 67.6076 115.624 66.9697 115.772C67.2586 116.239 66.8778 117.421 67.3201 117.724C67.5156 116.177 67.68 117.768 68.3145 116.823ZM98.8267 126.813C99.6213 129.17 101.926 129.048 103.431 129.852C103.184 129.686 103.425 129.033 103.712 128.718C102.055 127.821 100.476 126.734 98.8267 126.813ZM76.6433 119.856C76.8758 119.863 76.9764 121.096 77.0183 120.287C76.9515 120.246 76.8931 120.198 76.9995 119.973C77.4514 119.987 77.6259 120.299 77.8494 120.557C78.2407 119.576 76.9252 119.565 76.6433 119.856ZM78.2866 114.271C78.2413 113.485 77.7057 114.433 77.3552 114.272C77.4109 114.121 77.3722 113.932 77.2369 114.233C77.3291 115.098 77.7368 114.696 78.2866 114.271ZM103.74 167.917C103.14 168.591 103.487 168.216 102.985 168.895C100.042 167.122 98.2411 166.586 95.4298 165.196C95.5337 164.981 95.6485 164.964 95.7485 164.689C95.3687 164.741 94.3385 165.534 94.4242 163.947C94.2402 164.111 94.0623 164.387 93.8864 164.691C93.7633 164.601 93.969 164.159 94.0676 163.832C93.9527 163.852 93.8493 164.067 93.731 164.027C93.294 164.192 94.0128 164.408 93.4306 164.847C92.677 164.351 93.2344 163.254 92.1242 164.42C91.6127 164.062 91.5369 162.962 90.7998 163.681C90.6089 163.447 90.7043 163.171 90.9811 162.82C90.082 163.609 89.8143 162.656 88.9814 162.472C89.1932 162.132 89.4215 162.046 89.6563 162.081C89.9043 161.109 88.9838 162.049 89.1251 160.988C89.5884 160.835 89.9392 160.202 90.1557 160.715C90.0131 158.984 87.7156 158.794 86.8942 158.727C87.2992 158.508 87.2254 157.278 86.8751 158.415C86.7567 158.099 87.0466 157.345 86.8005 157.166C87.0662 156.466 87.4961 156.956 87.4374 156.15C87.0633 155.944 87.0249 157.324 86.4439 157.051C86.4705 157.519 86.8238 157.64 86.4198 158.571C86.254 158.404 86.117 158.712 85.9811 159.042C85.7263 158.322 86.8698 158.084 86.3635 157.635C85.8584 158.376 84.791 158.331 84.301 158.185C85.1749 159.475 86.5255 158.68 87.325 160.093C86.6338 161.674 86.1947 160.59 86.0382 159.978C85.7083 159.944 86.0289 160.502 85.6383 161.072C85.5679 160.856 84.7968 160.712 84.6889 160.761C84.5011 159.98 85.3447 160.251 85.5637 159.822C85.335 159.676 84.5732 158.48 83.7387 160.449C83.7759 159.855 83.9645 159.099 83.6453 158.888C83.6086 159.149 83.5699 159.412 83.6824 159.513C83.1127 159.892 83.7504 158.149 84.2822 157.872C83.1616 156.594 80.2535 155.954 77.9338 154.875C76.8038 154.351 75.4112 153.994 74.5715 153.163C74.0476 152.643 71.824 152.116 70.5348 151.841C70.4049 151.704 70.6871 151.123 70.8155 150.709C69.4717 152.01 68.864 150.01 67.0537 150.089C66.9319 149.999 67.1363 149.557 67.2353 149.23C67.0547 149.028 66.4169 149.905 66.8604 148.801C65.1015 150.092 63.9164 148.281 62.7424 148.066C62.5776 148.034 62.275 148.519 62.3054 148.534C62.0636 148.414 62.0762 147.457 61.6551 147.403C61.1609 147.339 61.0156 147.169 60.5678 146.74C60.1637 146.354 59.3031 145.673 59.1056 145.65C58.9503 145.631 58.7729 146.261 58.5494 146.08C58.3702 145.933 58.5917 145.417 58.5038 145.195C58.4382 145.312 57.4612 145.072 56.9877 145.261C57.5025 144.214 55.1387 144.641 54.3381 143.783C54.608 143.248 54.8904 143.364 54.8559 142.728C54.0373 142.911 53.5231 144.305 53.3321 142.534C52.3755 143.486 52.2786 142.75 51.3517 142.498C51.5512 141.956 51.8019 142.257 51.9881 141.482C51.4498 142.457 51.4451 141.065 50.8584 142.029C50.7683 141.945 50.8499 141.686 50.9465 141.557C49.9033 142.353 48.785 141.295 48.1079 140.824C48.5166 140.124 48.3936 139.821 48.7453 139.807C48.5415 139.34 47.825 138.797 48.5138 137.897C48.2219 138.155 48.0987 138.116 48.0392 137.74C47.8824 138.07 47.9051 138.209 47.9807 138.29C46.7853 137.344 44.988 136.267 44.2832 135.286C43.9762 135.969 44.1125 135.407 43.4901 135.638C43.6706 135.426 43.843 135.063 44.0087 134.583C43.6976 134.578 43.465 135.855 43.1339 135.52C43.7321 133.583 41.8445 135.351 42.1282 134.273C41.9723 134.272 41.8454 134.74 41.7096 135.054C41.3784 134.434 41.1331 134.567 40.2844 134.588C41.6697 133.732 40.3216 133.93 39.7904 134.121C39.9463 133.494 40.1598 133.806 40.3281 133.378C40.3208 132.816 39.915 132.362 39.5153 133.418C39.4422 131.908 38.7539 131.709 38.1785 130.531C39.1251 129.612 40.1563 129.759 41.5279 130.098C41.7481 130.035 41.6083 129.733 41.8273 129.277C43.7527 129.205 45.1407 130.6 47.0951 129.777C44.9053 127.141 41.2438 127.312 38.8095 125.532C39.8656 125.052 40.2805 124.998 41.4647 125.177C41.6483 124.372 40.8535 124.614 40.8148 124.047C41.137 123.595 41.5124 124.035 41.8456 123.772C40.5474 122.317 38.7584 122.299 36.6839 121.164C36.9323 120.131 37.3089 121.227 37.5405 119.913C41.1477 121.557 45.0661 119.734 46.5253 122.244C46.2117 122.831 45.8207 122.131 45.4764 122.205C46.0324 123.726 47.5416 123.862 48.738 124.192C52.083 125.113 55.4435 125.96 58.6736 126.832C58.7669 126.565 58.606 126.571 58.5353 126.481C62.3173 126.422 67.5645 128.097 70.5272 130.406C70.7448 130.15 70.9964 130.465 71.1825 129.703C71.6668 131.388 73.0698 130.799 74.2882 131.027C77.4056 131.606 80.1833 134.349 83.1124 134.527C82.2841 135.753 83.4345 134.744 83.9431 134.799C85.9769 135.02 88.5967 137.012 90.8668 137.678C90.6502 135.761 87.951 136.634 87.192 134.638C87.3782 133.868 87.6799 135.017 87.8665 134.246C86.7468 131.611 84.0089 133.393 82.8874 130.779C82.6231 130.999 82.7729 131.245 82.3492 131.522C79.0231 131.091 74.6571 128.599 71.0146 126.892C70.5831 126.689 69.9476 127.37 69.4074 127.286C64.8667 126.573 62.1502 122.503 57.9161 121.992C60.2841 121.86 61.6055 123.202 64.5278 123.545C64.6836 123.546 64.8103 123.078 64.9461 122.762C66.4597 123.282 66.6726 124.293 67.8522 124.632C73.5491 126.277 79.8826 129.162 86.6545 129.564C87.1789 129.493 87.0109 128.611 87.3918 128.274C88.1499 129.907 90.0338 128.735 90.3538 131.081C90.7643 130.941 90.3442 130.339 90.2976 130.144C91.734 129.659 92.0628 133.046 93.9344 132.559C94.1185 131.642 93.4669 131.621 93.4841 130.881C93.5181 130.645 94.2606 131.03 94.2152 131.427C95.0229 130.142 96.7588 131.642 97.6395 132.242C98.3105 130.979 99.7585 133.258 100.77 132.042C97.7965 130.346 93.4109 130.04 90.6037 127.488C90.3892 127.94 90.5072 128.036 90.6404 128.113C90.1617 128.409 89.8079 128.154 90.0101 127.294C89.5572 127.094 89.8941 127.726 89.4731 128.036C89.2189 127.664 89.1806 127.485 89.0786 127.295C87.7317 127.725 86.9199 126.34 86.0729 125.699C84.0956 124.597 86.6556 126.262 87.3043 124.877C85.1851 123.302 81.6981 123.2 79.8865 121.531C80.3296 120.122 80.3088 121.663 80.6417 120.555C79.9234 119.757 78.9195 119.971 78.2493 119.464C78.0822 120.419 79.0693 120.137 78.5992 121.417C77.6128 121.281 76.6774 120.491 75.9881 120.56C76.7335 118.588 75.0014 118.703 74.4438 120.056C73.851 120.303 74.4903 119.229 74.0505 119.314C73.8766 119.332 73.7314 119.818 73.8501 119.861C72.1454 119.652 68.1961 118.647 66.6081 117.49C66.5144 117.258 66.601 116.832 66.7706 116.318C66.3377 116.437 66.5192 117.222 66.2703 117.685C65.4475 116.764 64.3321 117.441 64.0957 116.362C64.3815 115.29 64.7843 116.197 65.1271 116.086C65.1186 115.458 64.7171 115.865 65.2896 114.915C62.3983 114.261 61.6957 114.004 59.2345 112.932C61.4309 111.676 62.7888 114.151 64.7205 113.198C65.4996 114.299 66.6084 113.671 67.4704 114.403C67.8002 114.439 67.4797 113.879 67.8703 113.309C68.3555 113.127 68.1481 113.373 68.5827 113.544C68.9331 112.835 68.53 112.934 68.526 112.606C68.8854 111.93 68.855 113.304 69.3383 112.566C69.1335 111.238 67.6554 113.39 66.983 112.101C67.0828 111.556 66.6978 111.795 67.1637 111.243C66.5584 111.116 66.4411 110.465 65.7203 110.463C65.1997 110.299 65.8725 109.985 66.0585 110.267C67.2294 110.444 68.9525 109.914 69.2629 111.317C70.0799 110.601 69.8361 111.786 70.4319 111.394C70.4007 111.864 70.1312 112.567 69.6941 112.684C71.3093 114.502 73.8959 114.366 76.0059 115.055C75.896 113.079 73.7181 114.558 73.3001 112.638C74.3735 112.346 75.1256 112.955 76.0121 113.22C75.4683 114.06 76.5434 114.28 76.9994 114.156C77.2188 114.096 77.0806 113.79 77.2989 113.336C77.9085 114.048 78.6713 113.571 79.6735 114.113C79.6599 114.516 79.4145 115.168 79.6297 115.325C80.0472 113.422 79.9158 116.062 80.6795 115.361C79.1901 117.217 79.5054 113.976 78.3242 114.895C79.2607 116.434 80.181 117.751 81.8414 117.273C82.0896 116.564 81.439 116.818 81.9864 115.788C82.8739 116.081 83.1725 116.609 84.1231 116.488C83.9506 116.847 83.7425 116.618 83.5473 116.607C84.029 118.523 85.8203 119.059 87.3409 119.685C87.7369 119.276 87.6201 118.828 87.5029 118.514C87.8101 117.803 88.1988 118.464 88.5152 117.926C89.7585 121.438 94.0495 119.505 95.1153 123.148C95.2682 122.62 95.6684 122.802 96.0892 121.937C97.0311 122.163 97.5533 123.214 98.7824 122.207C99.1916 123.769 101.76 122.317 101.426 125.521C103.294 123.744 104.252 124.394 105.962 125.474C105.791 125.86 105.572 125.455 105.406 125.906C105.796 126.54 106.639 126.689 107.224 127.114C107.36 126.248 106.579 126.365 106.118 126.139C106.714 124.752 106.792 126.1 107.505 125.979C107.297 128.819 109.683 128.184 111.024 128.357C111.065 127.814 110.483 127.94 110.392 127.539C111.863 126.798 112.489 128.722 113.698 128.314C113.564 128.68 113.432 129.043 113.299 129.408C115.367 130.804 117.216 130.79 119.672 130.883C119.996 130.816 119.684 130.409 120.091 130.101C122.803 130.85 125.588 132.438 128.582 131.963C128.556 131.672 127.357 131.909 127.914 130.519C128.227 131.093 129.405 131.373 129.55 132.587C132.474 133.172 135.976 133.371 139.074 134.174C141.637 134.837 144.415 134.843 146.953 135.529C151.959 136.88 155.785 139.07 160.069 140.741C161.316 141.227 162.368 141.943 162.931 143.821C161.72 146.211 160.872 145.306 159.438 145.739C159.57 146.319 159.418 147.202 159.889 147.418C159.793 147.574 159.209 148.373 159.489 148.512C158.157 150.948 156.968 149.547 155.797 150.975C156.058 152.432 157.542 151.315 158.665 152.221C158.759 151.29 158.302 150.948 157.758 150.7C159.132 150.01 160.671 151.274 161.495 152.841C160.587 153.91 160.555 152.472 159.415 153.078C159.217 154.443 158.431 154.587 158.177 155.736C158.313 156.255 158.801 156.398 159.164 156.671C158.755 156.957 158.397 158.103 157.971 158.117C157.598 159.072 157.821 159.386 157.846 159.914C158.031 160.122 158.687 158.785 158.465 158.586C159.123 157.543 159.339 159.835 159.852 158.426C159.665 159.672 158.849 159.399 158.421 159.796C158.382 160.614 158.83 160.909 158.99 161.513C158.432 162.154 158.038 161.214 157.684 161.085C157.464 161.147 157.602 161.451 157.384 161.906C157.966 162.659 159.244 163.479 159.815 163.62C159.391 164.836 159.527 163.38 159.14 164.012C159.436 165.274 158.666 167.474 157.872 170.026C157.027 170.305 156.751 170.63 156.01 170.028C155.787 170.23 155.794 170.642 155.373 171.044C155.172 172.307 156.231 172.745 156.754 172.721C156.008 173.82 156.419 174.909 156.685 175.454C156.391 176.356 156.027 176.122 155.711 176.666C155.001 179.938 153.127 179.978 151.931 181.551C149.433 181.398 147.509 179.112 145.026 178.985C144.241 178.943 143.256 179.462 142.489 179.378C140.743 179.191 139.144 178.419 137.402 178.02C132.124 176.807 127.417 174.684 121.787 173.826C120.005 173.554 117.752 173.423 115.788 172.78C112.512 171.708 108.858 171.344 106.609 169.162C106.385 169.364 106.396 169.832 105.952 169.867C105.666 168.407 103.447 170.617 103.74 167.917Z" fill="#FF7B29" fill-opacity="0.3"/>
</svg>
