<svg width="46" height="46" viewBox="0 0 46 46" fill="none" xmlns="http://www.w3.org/2000/svg">
<circle cx="23" cy="23" r="22.5" stroke="#F5F5F5"/>
<path fill-rule="evenodd" clip-rule="evenodd" d="M19.07 17.315C19.4512 17.1667 19.8877 17.0654 20.5265 17.0363C21.1666 17.0068 21.3712 17 23.0007 17C24.6302 17 24.8347 17.0072 25.4745 17.0363C26.1128 17.0649 26.549 17.1667 26.9309 17.315C27.325 17.4682 27.6599 17.6732 27.9933 18.0071C28.3268 18.341 28.5319 18.6754 28.6855 19.07C28.8338 19.4511 28.9351 19.8875 28.9641 20.5263C28.9932 21.1661 29 21.3706 29 23C29 24.6294 28.9932 24.8335 28.9641 25.4737C28.9355 26.1124 28.8338 26.5487 28.6855 26.9301C28.5319 27.3245 28.3273 27.6595 27.9933 27.9929C27.6594 28.3263 27.325 28.5314 26.9305 28.685C26.549 28.8333 26.1128 28.9346 25.474 28.9637C24.8343 28.9932 24.6297 29 23.0003 29C21.3708 29 21.1666 28.9927 20.5265 28.9637C19.8877 28.9346 19.4519 28.8333 19.07 28.685C18.6753 28.5314 18.341 28.3262 18.0071 27.9929C17.6732 27.6597 17.4682 27.3245 17.315 26.9301C17.1667 26.5487 17.0654 26.1125 17.0363 25.4737C17.0068 24.8339 17 24.6294 17 23C17 21.3706 17.0068 21.1661 17.0363 20.5263C17.0654 19.8876 17.1667 19.4514 17.315 19.07C17.4682 18.6752 17.6732 18.3405 18.0071 18.0071C18.3411 17.6737 18.6753 17.4682 19.07 17.315ZM22.9997 21C21.8953 21 21 21.8955 21 23C21 24.1045 21.8953 25 22.9997 25C24.1043 25 25 24.1043 25 23C25 21.8957 24.1043 21 22.9997 21ZM19.6667 23C19.6667 21.1594 21.1586 19.6667 22.9997 19.6667C24.8405 19.6667 26.3333 21.1591 26.3333 23C26.3333 24.8409 24.8405 26.3333 22.9997 26.3333C21.1586 26.3333 19.6667 24.8407 19.6667 23ZM27 19.6667C27.3682 19.6667 27.6667 19.3682 27.6667 19C27.6667 18.6318 27.3682 18.3333 27 18.3333C26.6318 18.3333 26.3333 18.6318 26.3333 19C26.3333 19.3682 26.6318 19.6667 27 19.6667Z" fill="#BCBCBC"/>
</svg>
