<svg width="46" height="46" viewBox="0 0 46 46" fill="none" xmlns="http://www.w3.org/2000/svg">
<circle cx="23" cy="23" r="22.5" stroke="#F5F5F5"/>
<path d="M26.0226 17.0027V17H26.7259L26.9829 17.0506C27.1542 17.0835 27.3098 17.1265 27.4495 17.1798C27.5893 17.2331 27.7245 17.2952 27.8552 17.3663C27.986 17.4373 28.1046 17.5097 28.2111 17.5834C28.3165 17.6562 28.4112 17.7334 28.4951 17.8151C28.578 17.8977 28.7074 17.919 28.8832 17.879C29.0591 17.8391 29.2485 17.7836 29.4513 17.7125C29.6542 17.6415 29.8548 17.5616 30.0532 17.4728C30.2516 17.384 30.3724 17.3276 30.4157 17.3037C30.458 17.2788 30.4806 17.2655 30.4833 17.2637L30.486 17.2597L30.4995 17.253L30.5131 17.2464L30.5266 17.2397L30.5401 17.2331L30.5428 17.2291L30.5469 17.2264L30.551 17.2238L30.5537 17.2198L30.5672 17.2158L30.5807 17.2131L30.578 17.2331L30.5739 17.253L30.5672 17.273L30.5604 17.293L30.5537 17.3063L30.5469 17.3196L30.5401 17.3396C30.5356 17.3529 30.5311 17.3707 30.5266 17.3929C30.5221 17.4151 30.4793 17.5039 30.3981 17.6593C30.317 17.8147 30.2155 17.9723 30.0938 18.1321C29.9721 18.2919 29.8629 18.4126 29.7665 18.4943C29.6691 18.5769 29.6046 18.6346 29.5731 18.6675C29.5415 18.7012 29.5031 18.7323 29.4581 18.7607L29.3904 18.8047L29.3769 18.8113L29.3634 18.818L29.3607 18.822L29.3566 18.8246L29.3526 18.8273L29.3499 18.8313L29.3363 18.838L29.3228 18.8446L29.3202 18.8486L29.316 18.8513L29.312 18.8539L29.3093 18.8579L29.3066 18.8619L29.3025 18.8646L29.2985 18.8673L29.2958 18.8713H29.3634L29.7421 18.7913C29.9946 18.7381 30.2358 18.6737 30.4657 18.5982L30.8309 18.4784L30.8715 18.465L30.8918 18.4584L30.9054 18.4517L30.9188 18.4451L30.9323 18.4384L30.9459 18.4317L30.9729 18.4277L31 18.4251V18.4517L30.9932 18.4544L30.9865 18.4584L30.9838 18.4624L30.9797 18.465L30.9756 18.4677L30.9729 18.4717L30.9702 18.4757L30.9662 18.4784L30.9621 18.481L30.9594 18.485L30.9567 18.489L30.9527 18.4917L30.9459 18.505L30.9391 18.5183L30.9351 18.521C30.9333 18.5236 30.876 18.5991 30.7633 18.7474C30.6506 18.8966 30.5898 18.972 30.5807 18.9738C30.5717 18.9765 30.5591 18.9898 30.5428 19.0138C30.5275 19.0386 30.432 19.1376 30.2561 19.3108C30.0803 19.4839 29.9081 19.638 29.7394 19.7729C29.5699 19.9088 29.4843 20.0757 29.4825 20.2737C29.4798 20.4708 29.4693 20.6937 29.4513 20.9423C29.4333 21.1909 29.3995 21.4595 29.3499 21.748C29.3003 22.0366 29.2236 22.3629 29.1199 22.727C29.0163 23.091 28.89 23.4462 28.7412 23.7924C28.5924 24.1387 28.4369 24.4495 28.2746 24.7248C28.1123 25 27.9635 25.2331 27.8282 25.424C27.6929 25.6149 27.5555 25.7946 27.4157 25.9634C27.2759 26.1321 27.0992 26.3221 26.8855 26.5334C26.6708 26.7439 26.5537 26.8593 26.5338 26.8797C26.5131 26.8992 26.4247 26.9721 26.2687 27.0981C26.1136 27.225 25.9468 27.352 25.7682 27.479C25.5906 27.6051 25.4274 27.7103 25.2786 27.7947C25.1298 27.8791 24.9504 27.9754 24.7403 28.0837C24.5311 28.1929 24.3047 28.2941 24.0613 28.3873C23.8178 28.4805 23.5609 28.5672 23.2904 28.647C23.0198 28.727 22.7583 28.7891 22.5059 28.8335C22.2534 28.8779 21.9671 28.9156 21.647 28.9468L21.1668 28.9933V29H20.2876V28.9933L20.1727 28.9867C20.096 28.9822 20.0329 28.9778 19.9833 28.9734C19.9337 28.969 19.7466 28.9445 19.422 28.9001C19.0974 28.8557 18.8427 28.8113 18.6578 28.7669C18.473 28.7225 18.1979 28.6382 17.8327 28.5139C17.4675 28.3896 17.1551 28.264 16.8954 28.137C16.6366 28.0109 16.4743 27.931 16.4085 27.8972C16.3436 27.8644 16.2705 27.8236 16.1894 27.7747L16.0676 27.7015L16.0649 27.6975L16.0609 27.6948L16.0568 27.6922L16.0541 27.6881L16.0406 27.6815L16.0271 27.6748L16.0244 27.6708L16.0203 27.6681L16.0162 27.6655L16.0135 27.6615L16.0108 27.6575L16.0068 27.6548H16V27.6282L16.0135 27.6309L16.0271 27.6349L16.0879 27.6415C16.1285 27.6459 16.239 27.6526 16.4193 27.6615C16.5996 27.6704 16.7913 27.6704 16.9941 27.6615C17.197 27.6526 17.4044 27.6326 17.6163 27.6016C17.8282 27.5705 18.0785 27.5172 18.367 27.4417C18.6556 27.3663 18.9207 27.2766 19.1623 27.1727C19.4031 27.0679 19.5744 26.9898 19.6763 26.9383C19.7773 26.8877 19.9315 26.7936 20.1389 26.6559L20.45 26.4495L20.4527 26.4455L20.4567 26.4429L20.4608 26.4402L20.4635 26.4362L20.4662 26.4322L20.4702 26.4295L20.4743 26.4268L20.477 26.4229L20.4905 26.4189L20.5041 26.4162L20.5068 26.4029L20.5108 26.3895L20.5149 26.3869L20.5176 26.3829L20.4094 26.3763C20.3372 26.3718 20.2674 26.3674 20.1997 26.3629C20.1321 26.3585 20.0262 26.3385 19.8819 26.303C19.7376 26.2674 19.5821 26.2142 19.4152 26.1432C19.2484 26.0722 19.0861 25.9878 18.9283 25.8901C18.7705 25.7925 18.6564 25.7112 18.5861 25.6464C18.5167 25.5825 18.4265 25.4919 18.3156 25.3747C18.2056 25.2566 18.11 25.1354 18.0289 25.0111C17.9477 24.8868 17.8702 24.7434 17.7962 24.5809L17.684 24.3385L17.6772 24.3185L17.6704 24.2985L17.6664 24.2853L17.6637 24.2719L17.684 24.2745L17.7042 24.2786L17.853 24.2985C17.9522 24.3119 18.1078 24.3163 18.3197 24.3119C18.5316 24.3075 18.6781 24.2986 18.7592 24.2853C18.8404 24.2719 18.89 24.263 18.908 24.2586L18.9351 24.252L18.9689 24.2453L19.0027 24.2386L19.0054 24.2347L19.0095 24.232L19.0135 24.2293L19.0162 24.2253L18.9892 24.2187L18.9621 24.212L18.9351 24.2053L18.908 24.1986L18.881 24.192C18.8629 24.1876 18.8314 24.1787 18.7863 24.1653C18.7412 24.1521 18.6195 24.1032 18.4211 24.0189C18.2227 23.9345 18.0649 23.8524 17.9477 23.7725C17.8302 23.6923 17.7181 23.6047 17.6123 23.5101C17.5068 23.4142 17.3909 23.2908 17.2646 23.1399C17.1384 22.9889 17.0257 22.8135 16.9265 22.6137C16.8273 22.4139 16.7529 22.2231 16.7033 22.0411C16.6539 21.8601 16.6213 21.6751 16.606 21.4883L16.5816 21.2087L16.5951 21.2113L16.6087 21.2153L16.6222 21.222L16.6357 21.2286L16.6492 21.2353L16.6628 21.242L16.8724 21.3352C17.0122 21.3973 17.1858 21.4506 17.3931 21.495C17.6006 21.5394 17.7245 21.5638 17.7651 21.5682L17.826 21.5749H17.9477L17.945 21.5709L17.9409 21.5682L17.9369 21.5656L17.9342 21.5616L17.9315 21.5576L17.9274 21.555L17.9234 21.5523L17.9207 21.5483L17.9071 21.5416L17.8936 21.535L17.8909 21.531L17.8868 21.5283L17.8828 21.5256L17.8801 21.5217L17.8665 21.515L17.853 21.5083L17.8503 21.5044C17.8476 21.5026 17.8088 21.4741 17.734 21.4191C17.66 21.3632 17.5825 21.2908 17.5014 21.202C17.4202 21.1132 17.339 21.02 17.2579 20.9223C17.1766 20.8244 17.1042 20.7197 17.0415 20.6093C16.9784 20.4983 16.9116 20.3572 16.8413 20.1858C16.7719 20.0153 16.7191 19.8435 16.683 19.6704C16.647 19.4972 16.6267 19.3263 16.6222 19.1576C16.6177 18.9889 16.6222 18.8446 16.6357 18.7248C16.6492 18.6049 16.6763 18.4695 16.7169 18.3185C16.7574 18.1676 16.8161 18.0078 16.8927 17.8391L17.0077 17.586L17.0144 17.566L17.0212 17.5461L17.0253 17.5434L17.0279 17.5394L17.0307 17.5354L17.0347 17.5327L17.0388 17.5354L17.0415 17.5394L17.0442 17.5434L17.0482 17.5461L17.0523 17.5487L17.055 17.5527L17.0577 17.5567L17.0618 17.5594L17.0685 17.5727L17.0753 17.586L17.0794 17.5887L17.0821 17.5927L17.2646 17.7925C17.3864 17.9256 17.5307 18.0744 17.6975 18.2386C17.8643 18.4029 17.9567 18.4881 17.9747 18.4943C17.9928 18.5014 18.0153 18.5219 18.0424 18.5556C18.0694 18.5885 18.1596 18.667 18.3129 18.7913C18.4662 18.9156 18.6668 19.0599 18.9148 19.2242C19.1628 19.3884 19.4378 19.5505 19.7399 19.7103C20.0419 19.8701 20.3666 20.0144 20.7137 20.1432C21.0609 20.2719 21.3043 20.3563 21.4441 20.3962C21.5839 20.4362 21.8228 20.4872 22.1609 20.5494C22.4991 20.6116 22.7538 20.6515 22.9251 20.6693C23.0965 20.687 23.2137 20.6972 23.2768 20.6999L23.3715 20.7026L23.3688 20.6826L23.3648 20.6626L23.3377 20.4961C23.3196 20.3851 23.3106 20.2297 23.3106 20.03C23.3106 19.8302 23.3265 19.646 23.358 19.4772C23.3895 19.3085 23.4369 19.1376 23.5 18.9645C23.5632 18.7913 23.6249 18.6524 23.6853 18.5476C23.7466 18.4437 23.8268 18.3252 23.9261 18.192C24.0252 18.0588 24.1538 17.9212 24.3116 17.7791C24.4694 17.6371 24.6497 17.5105 24.8526 17.3996C25.0554 17.2886 25.2425 17.2042 25.4138 17.1465C25.5852 17.0888 25.7295 17.0511 25.8467 17.0333C25.9639 17.0155 26.0226 17.0053 26.0226 17.0027Z" fill="#BCBCBC"/>
</svg>
