<svg width="82" height="68" viewBox="0 0 82 68" fill="none" xmlns="http://www.w3.org/2000/svg">
<g clip-path="url(#clip0_94_489)">
<path fill-rule="evenodd" clip-rule="evenodd" d="M45.421 44.3817C42.8255 44.3817 40.2301 44.6412 37.8942 45.4198L30.108 27.771C29.8484 28.0305 29.8484 28.2901 29.8484 28.2901L29.3293 29.0687L28.2912 28.8092C28.2912 28.8092 28.0316 28.8092 27.7721 28.8092L35.5583 46.1985C29.8484 48.5343 25.4362 52.687 23.3599 58.1374C24.1385 58.3969 24.9171 58.916 25.1767 59.6946C25.4362 59.9542 25.6957 60.4732 26.2148 60.7328C26.9935 60.9923 27.7721 60.9923 28.5507 60.7328C29.0698 60.4732 29.3293 59.9542 29.5889 59.6946C30.627 57.3587 33.7416 57.3587 34.7797 59.6946C35.0393 59.9542 35.2988 60.4732 35.8179 60.7328C36.5965 60.9923 37.3751 60.9923 38.1538 60.7328C38.6729 60.4732 38.9324 59.9542 39.1919 59.6946C40.2301 57.3587 43.3446 57.3587 44.6423 59.6946C44.6423 59.9542 45.1614 60.4732 45.421 60.7328C46.1996 60.9923 47.2378 60.9923 47.7568 60.7328C48.2759 60.4732 48.5355 59.9542 48.795 59.6946C50.0927 57.3587 52.9477 57.3587 54.2454 59.6946C54.5049 59.9542 54.7645 60.4732 55.024 60.7328C55.8026 60.9923 56.8408 60.9923 57.3599 60.7328C57.879 60.4732 58.1385 59.9542 58.3981 59.6946C59.6958 57.3587 62.5507 57.3587 63.8485 59.6946C64.108 59.9542 64.3675 60.4732 64.6271 60.7328C65.4057 60.9923 66.4439 60.9923 67.2225 60.7328C67.482 60.4732 67.7416 60.2137 68.0011 59.6946C65.4057 50.8702 56.3217 44.3817 45.421 44.3817Z" fill="#FF7B29"/>
<path d="M81.5011 62.0307C82.2797 60.4734 80.2034 58.9162 79.4247 60.4734C78.9057 61.252 78.3866 61.7711 77.6079 62.2902C76.3102 63.0688 74.753 63.0688 73.4553 62.2902C72.6766 61.7711 72.1576 61.252 71.898 60.4734C71.3789 59.6948 70.0812 59.6948 69.8217 60.4734C69.3026 61.252 68.7835 61.7711 68.0049 62.2902C66.7072 63.0688 65.1499 63.0688 63.8522 62.2902C63.0736 61.7711 62.5545 61.252 62.0354 60.4734C61.7759 59.6948 60.4782 59.6948 59.9591 60.4734C59.6995 61.252 59.1805 61.7711 58.4018 62.2902C57.1041 63.0688 55.5469 63.0688 54.2492 62.2902C53.4705 61.7711 52.9515 61.252 52.4324 60.4734C52.1728 59.6948 50.8751 59.6948 50.356 60.4734C50.0965 61.252 49.5774 61.7711 48.7988 62.2902C47.5011 63.0688 45.9438 63.0688 44.6461 62.2902C43.8675 61.7711 43.3484 61.252 42.8293 60.4734C42.3102 59.6948 41.2721 59.6948 40.753 60.4734C40.4934 61.252 39.7148 61.7711 39.1957 62.2902C37.898 63.0688 36.0812 63.0688 34.7835 62.2902C34.2644 61.7711 33.7453 61.252 33.2263 60.4734C32.7072 59.6948 31.669 59.6948 31.1499 60.4734C30.6308 61.252 30.1118 61.7711 29.5927 62.2902C28.295 63.0688 26.4782 63.0688 25.1805 62.2902C24.6614 61.7711 24.1423 61.252 23.6232 60.4734C23.1041 59.6948 22.066 59.6948 21.5469 60.4734C21.0278 61.252 20.5087 61.7711 19.9896 62.2902C18.6919 63.0688 16.8751 63.0688 15.5774 62.2902C15.0583 61.7711 14.2797 61.252 14.0202 60.4734C13.5011 59.6948 12.4629 59.6948 11.9438 60.4734C11.4247 61.252 10.9057 61.7711 10.3866 62.2902C9.08886 63.0688 7.27207 63.0688 5.97436 62.2902C5.45527 61.7711 4.67665 61.252 4.4171 60.4734C3.37894 58.9162 1.56214 60.4734 2.34077 62.0307C2.85985 63.0688 3.89802 64.107 4.93619 64.6261C7.01252 65.9238 9.3484 65.9238 11.4247 64.6261C11.9438 64.3665 12.4629 63.8475 12.982 63.3284C13.5011 63.8475 14.0202 64.3665 14.5392 64.6261C16.6156 65.9238 18.9515 65.9238 21.0278 64.6261C21.5469 64.3665 22.066 63.8475 22.585 63.3284C23.1041 63.8475 23.6232 64.3665 24.1423 64.6261C26.2186 65.9238 28.5545 65.9238 30.6308 64.6261C31.1499 64.3665 31.669 63.8475 32.1881 63.3284C32.7072 63.8475 33.2263 64.3665 33.7453 64.6261C35.8217 65.9238 38.1576 65.9238 40.2339 64.6261C40.753 64.3665 41.2721 63.8475 41.7911 63.3284C42.3102 63.8475 42.8293 64.3665 43.3484 64.6261C45.4247 65.9238 48.0202 65.9238 50.0965 64.6261C50.6156 64.3665 51.1347 63.8475 51.3942 63.3284C51.9133 63.8475 52.4324 64.3665 52.9515 64.6261C55.0278 65.9238 57.6232 65.9238 59.6995 64.6261C60.2186 64.3665 60.7377 63.8475 60.9973 63.3284C61.5163 63.8475 62.0354 64.3665 62.5545 64.6261C64.6308 65.9238 67.2263 65.9238 69.3026 64.6261C69.8217 64.3665 70.3408 63.8475 70.8599 63.3284C71.1194 63.8475 71.6385 64.3665 72.1576 64.6261C74.2339 65.9238 76.8293 65.9238 78.9057 64.6261C79.9438 64.107 80.7225 63.0688 81.5011 62.0307Z" fill="#FF7B29"/>
<path fill-rule="evenodd" clip-rule="evenodd" d="M42.5691 21.0229C42.8286 20.5038 43.0882 20.2443 43.3477 19.7252C45.6836 17.3893 49.0576 15.8321 52.4317 15.8321C53.2103 15.8321 54.2485 15.8321 55.0271 16.0916V15.8321C49.3172 3.11452 34.7828 -2.85494 21.0271 1.29773C25.1798 2.07636 28.8134 3.89315 32.1874 6.22903C36.0805 9.60307 39.9737 15.0535 42.5691 21.0229Z" fill="#FF7B29"/>
<path fill-rule="evenodd" clip-rule="evenodd" d="M14.0172 4.41223C1.81875 11.6794 -3.37209 26.7328 2.33783 39.4504C2.59738 38.6718 3.11646 38.1527 3.89509 37.3741C6.23096 35.0382 9.60501 33.4809 12.9791 33.4809C13.4981 33.2214 13.7577 33.4809 14.2768 33.4809C11.6813 27.5115 10.1241 21.0229 10.3836 16.0916C10.6432 11.9389 11.9409 8.04582 14.0172 4.41223Z" fill="#FF7B29"/>
<path fill-rule="evenodd" clip-rule="evenodd" d="M17.3903 2.59546C14.2758 6.74813 12.7186 11.1603 12.1995 16.0916C11.9399 21.0229 13.4972 26.9924 16.0926 32.7023C16.3522 32.1832 16.6117 31.9237 16.8712 31.6642C19.2071 29.0687 22.5812 27.5115 25.9552 27.5115C26.9934 27.5115 27.772 27.5115 28.5506 27.771C29.0697 26.9924 29.5888 26.2138 30.1079 25.6947C32.4438 23.0993 36.0773 21.8016 39.1918 21.542C39.7109 21.542 40.23 21.542 40.7491 21.542C38.4132 16.0916 34.7796 10.9008 30.8865 7.7863C27.2529 4.67179 22.5812 3.11454 17.3903 2.59546Z" fill="#FF7B29"/>
</g>
<defs>
<clipPath id="clip0_94_489">
<rect width="81.4962" height="68" fill="white"/>
</clipPath>
</defs>
</svg>
