<svg width="18" height="14" viewBox="0 0 18 14" fill="none" xmlns="http://www.w3.org/2000/svg">
<path d="M16.778 0.333008H1.22244C0.927754 0.333008 0.645139 0.450071 0.436765 0.658445C0.228391 0.866818 0.111328 1.14943 0.111328 1.44412V12.5552C0.111328 12.8499 0.228391 13.1325 0.436765 13.3409C0.645139 13.5493 0.927754 13.6663 1.22244 13.6663H16.778C17.0727 13.6663 17.3553 13.5493 17.5637 13.3409C17.772 13.1325 17.8891 12.8499 17.8891 12.5552V1.44412C17.8891 1.14943 17.772 0.866818 17.5637 0.658445C17.3553 0.450071 17.0727 0.333008 16.778 0.333008ZM15.9224 12.5552H2.14466L6.03355 8.53301L5.23355 7.76079L1.22244 11.9108V2.28856L8.128 9.16078C8.33618 9.36773 8.61779 9.48389 8.91133 9.48389C9.20487 9.48389 9.48648 9.36773 9.69466 9.16078L16.778 2.11634V11.8386L12.6891 7.74967L11.9058 8.53301L15.9224 12.5552ZM1.95022 1.44412H15.878L8.91133 8.3719L1.95022 1.44412Z" fill="black" fill-opacity="0.26"/>
</svg>
