<svg width="18" height="18" viewBox="0 0 18 18" fill="none" xmlns="http://www.w3.org/2000/svg">
<path d="M8.06261 9C8.06261 9.24864 8.16138 9.4871 8.3372 9.66291C8.51301 9.83873 8.75147 9.9375 9.00011 9.9375C9.24875 9.9375 9.48721 9.83873 9.66302 9.66291C9.83884 9.4871 9.93761 9.24864 9.93761 9C9.93761 8.75136 9.83884 8.5129 9.66302 8.33709C9.48721 8.16127 9.24875 8.0625 9.00011 8.0625C8.75147 8.0625 8.51301 8.16127 8.3372 8.33709C8.16138 8.5129 8.06261 8.75136 8.06261 9ZM11.9689 9C11.9689 9.24864 12.0676 9.4871 12.2434 9.66291C12.4193 9.83873 12.6577 9.9375 12.9064 9.9375C13.155 9.9375 13.3935 9.83873 13.5693 9.66291C13.7451 9.4871 13.8439 9.24864 13.8439 9C13.8439 8.75136 13.7451 8.5129 13.5693 8.33709C13.3935 8.16127 13.155 8.0625 12.9064 8.0625C12.6577 8.0625 12.4193 8.16127 12.2434 8.33709C12.0676 8.5129 11.9689 8.75136 11.9689 9ZM4.15636 9C4.15636 9.24864 4.25513 9.4871 4.43095 9.66291C4.60676 9.83873 4.84522 9.9375 5.09386 9.9375C5.3425 9.9375 5.58096 9.83873 5.75677 9.66291C5.93259 9.4871 6.03136 9.24864 6.03136 9C6.03136 8.75136 5.93259 8.5129 5.75677 8.33709C5.58096 8.16127 5.3425 8.0625 5.09386 8.0625C4.84522 8.0625 4.60676 8.16127 4.43095 8.33709C4.25513 8.5129 4.15636 8.75136 4.15636 9ZM17.0704 5.60938C16.629 4.56055 15.9962 3.61914 15.1896 2.81055C14.3886 2.00663 13.4377 1.36762 12.3907 0.929688C11.3165 0.478516 10.1759 0.25 9.00011 0.25H8.96105C7.77745 0.255859 6.63097 0.490234 5.55285 0.951172C4.51487 1.3936 3.57289 2.03374 2.77941 2.83594C1.98058 3.64258 1.35363 4.58008 0.920033 5.625C0.470814 6.70703 0.244251 7.85742 0.250111 9.04102C0.256738 10.3974 0.577634 11.7338 1.18761 12.9453V15.9141C1.18761 16.1523 1.28227 16.3809 1.45076 16.5494C1.61925 16.7178 1.84777 16.8125 2.08605 16.8125H5.05675C6.26826 17.4225 7.60466 17.7434 8.96105 17.75H9.00206C10.172 17.75 11.3068 17.5234 12.3751 17.0801C13.4168 16.6474 14.3641 16.0158 15.1642 15.2207C15.9708 14.4219 16.6056 13.4883 17.0489 12.4473C17.5099 11.3691 17.7443 10.2227 17.7501 9.03906C17.756 7.84961 17.5255 6.69531 17.0704 5.60938ZM14.1193 14.1641C12.7501 15.5195 10.9337 16.2656 9.00011 16.2656H8.96691C7.78917 16.2598 6.61925 15.9668 5.58605 15.416L5.42199 15.3281H2.67199V12.5781L2.5841 12.4141C2.03331 11.3809 1.74035 10.2109 1.73449 9.0332C1.72667 7.08594 2.47081 5.25781 3.83605 3.88086C5.19933 2.50391 7.0216 1.74219 8.96886 1.73438H9.00206C9.97863 1.73438 10.9259 1.92383 11.8185 2.29883C12.6896 2.66406 13.4708 3.18945 14.1427 3.86133C14.8126 4.53125 15.34 5.31445 15.7052 6.18555C16.0841 7.08789 16.2735 8.04492 16.2696 9.0332C16.2579 10.9785 15.4943 12.8008 14.1193 14.1641Z" fill="black" fill-opacity="0.26"/>
</svg>
